# Blender 4.4.3
# www.blender.org
mtllib imu.mtl
o module_(1)
v 0.832477 0.133609 0.203445
v 0.832477 0.133609 0.163596
v 0.819227 0.119215 0.203445
v 0.819227 0.119215 0.163596
v 0.815423 0.117909 0.203445
v 0.815423 0.117909 0.163596
v 0.811456 0.117247 0.203445
v 0.811456 0.117247 0.163596
v 0.807434 0.117247 0.203445
v 0.807434 0.117247 0.163596
v 0.803466 0.117909 0.203445
v 0.803466 0.117909 0.163596
v 0.788028 0.129926 0.203445
v 0.786412 0.133609 0.203445
v 0.786412 0.133609 0.163596
v -0.716218 0.137508 0.203445
v -0.716218 0.137508 0.119319
v -0.723744 0.123600 0.203445
v -0.730456 0.119215 0.203445
v -0.730456 0.119215 0.119319
v -0.734260 0.117909 0.203445
v -0.734260 0.117909 0.119319
v -0.738227 0.117247 0.203445
v -0.738227 0.117247 0.119319
v -0.742249 0.117247 0.203445
v -0.742249 0.117247 0.119319
v -0.746216 0.117909 0.203445
v -0.746216 0.117909 0.119319
v -0.750020 0.119215 0.203445
v -0.750020 0.119215 0.119319
v -0.753557 0.121129 0.203445
v -0.753557 0.121129 0.119319
v -0.759455 0.126559 0.203445
v -0.759455 0.126559 0.119319
v -0.761655 0.129926 0.203445
v -0.761655 0.129926 0.119319
v -0.764258 0.137508 0.203445
v -0.764258 0.137508 0.119319
v 0.904639 0.168082 0.203445
v 0.887731 -0.442230 -1.164934
v 0.884642 -0.425940 -1.196394
v 0.878660 -0.431479 -1.199457
v 0.891285 -0.437154 -1.166072
v 0.880114 -0.449986 -1.170300
v 0.879949 -0.450030 -1.173278
v 0.893660 -0.432540 -1.168885
v 0.890813 -0.438506 -1.168321
v 0.878656 -0.448940 -1.181926
v 0.880511 -0.444842 -1.187290
v 0.894381 -0.429682 -1.175234
v 0.892005 -0.436217 -1.174433
v 0.890002 -0.440005 -1.170373
v 0.891386 -0.434477 -1.181186
v 0.890548 -0.438291 -1.176759
v 0.878006 -0.448224 -1.184549
v 0.877153 -0.447223 -1.187370
v 0.886555 -0.442656 -1.180230
v 0.886607 -0.439701 -1.185340
v 0.880922 -0.435540 -1.195819
v 0.876976 -0.438680 -1.196666
v 0.842029 -0.367995 -1.003934
v 0.869110 -0.371512 -1.020480
v 0.866378 -0.370703 -1.016674
v 0.859540 -0.395204 -1.017696
v 0.859166 -0.385851 -1.011422
v 0.868235 -0.383672 -1.020558
v 0.840629 -0.374587 -1.003072
v 0.842278 -0.377069 -1.003230
v 0.846475 -0.374429 -1.003867
v 0.848720 -0.368259 -1.005173
v 0.853337 -0.368612 -1.006836
v 0.596134 -0.445073 -1.250147
v 0.602621 -0.443299 -1.251909
v 0.596924 -0.442887 -1.250920
v 0.591037 -0.443521 -1.248546
v 0.591281 -0.442460 -1.248909
v 0.588391 -0.442146 -1.247435
v 0.581860 -0.441131 -1.242660
v 0.586183 -0.441856 -1.246071
v 0.586296 -0.441872 -1.246146
v 0.654953 -0.485674 -0.974134
v 0.648947 -0.479773 -0.959719
v 0.641055 -0.499775 -0.978895
v 0.676715 -0.478421 -0.988583
v 0.676490 -0.475544 -0.988231
v 0.669961 -0.476580 -0.984385
v 0.646515 -0.481024 -0.956609
v 0.645039 -0.485100 -0.960186
v 0.648351 -0.481941 -0.961337
v 0.645779 -0.483058 -0.958344
v 0.658468 -0.463911 -0.970081
v 0.657872 -0.458120 -0.969419
v 0.657181 -0.458056 -0.967880
v 0.660590 -0.462404 -0.973770
v 0.659199 -0.458219 -0.972016
v 0.677659 -0.458651 -0.990130
v 0.681080 -0.459416 -0.991581
v 0.684177 -0.458616 -0.992909
v 0.706470 -0.464258 -0.994317
v 0.706888 -0.464885 -0.994334
v 0.683605 -0.475014 -0.991173
v 0.683236 -0.472013 -0.991044
v 0.710083 -0.490618 -1.003229
v 0.697430 -0.500431 -1.004669
v 0.698060 -0.498293 -1.002998
v 0.708992 -0.495041 -1.006311
v 0.700921 -0.500108 -1.006244
v 0.701592 -0.498007 -1.004508
v 0.705015 -0.497625 -1.006187
v 0.705633 -0.495476 -1.004534
v 0.712897 -0.492393 -1.006547
v 0.709578 -0.492864 -1.004708
v 0.636293 -0.501680 -0.979983
v 0.645902 -0.502649 -0.986738
v 0.638669 -0.503077 -0.983978
v 0.655456 -0.496181 -0.983816
v 0.662700 -0.493080 -0.985860
v 0.662228 -0.495354 -0.987288
v 0.661667 -0.497552 -0.988853
v 0.658472 -0.505519 -0.996583
v 0.648550 -0.508987 -0.999373
v 0.658686 -0.469464 -0.971142
v 0.666134 -0.465881 -0.980536
v 0.647729 -0.484085 -0.962997
v 0.652096 -0.486544 -0.971581
v 0.672923 -0.473118 -0.986076
v 0.666638 -0.471683 -0.981154
v 0.663947 -0.478062 -0.979742
v 0.654520 -0.487982 -0.975501
v 0.651564 -0.488767 -0.973101
v 0.666895 -0.477270 -0.982155
v 0.660218 -0.488910 -0.981330
v 0.654028 -0.490239 -0.976961
v 0.663851 -0.472614 -0.978493
v -0.822156 -0.430277 -1.185333
v -0.821341 -0.438291 -1.176759
v -0.809453 -0.431479 -1.199457
v -0.815435 -0.425940 -1.196394
v -0.823611 -0.423538 -1.185093
v -0.824138 -0.427455 -1.182168
v -0.826605 -0.420420 -1.170424
v -0.812621 -0.448328 -1.176131
v -0.812255 -0.446951 -1.181859
v -0.810023 -0.449516 -1.179019
v -0.809795 -0.442059 -1.192272
v -0.818245 -0.443291 -1.173687
v -0.819509 -0.440455 -1.178708
v -0.807769 -0.438680 -1.196666
v -0.813796 -0.447816 -1.169963
v -0.814679 -0.446690 -1.175689
v -0.811715 -0.435540 -1.195819
v -0.803613 -0.373266 -1.028731
v -0.799969 -0.372443 -1.020419
v -0.791107 -0.374038 -1.010315
v -0.794428 -0.373061 -1.013266
v -0.797171 -0.370703 -1.016674
v -0.799903 -0.371512 -1.020480
v -0.779513 -0.368259 -1.005173
v -0.784981 -0.368694 -1.007223
v -0.774402 -0.369557 -1.003821
v -0.773438 -0.368008 -1.003995
v -0.800547 -0.383945 -1.023492
v -0.795979 -0.389085 -1.019198
v -0.790411 -0.390723 -1.014251
v -0.803070 -0.379140 -1.027454
v -0.797160 -0.383732 -1.017820
v -0.789959 -0.385851 -1.011422
v -0.801709 -0.378421 -1.023781
v -0.792125 -0.379489 -1.011411
v -0.788989 -0.380710 -1.009281
v -0.787525 -0.375432 -1.007882
v -0.506282 -0.439452 -1.234760
v -0.516976 -0.441856 -1.246071
v -0.512660 -0.441133 -1.242667
v -0.519185 -0.442146 -1.247435
v -0.533414 -0.443299 -1.251909
v -0.517093 -0.441873 -1.246149
v -0.614970 -0.458616 -0.992909
v -0.611246 -0.457707 -0.991679
v -0.608452 -0.458651 -0.990130
v -0.596775 -0.458419 -0.981313
v -0.594661 -0.457901 -0.979020
v -0.593292 -0.458353 -0.977158
v 0.275338 -0.059579 -0.121387
v 0.277702 -0.117306 -0.392971
v 0.334044 -0.059079 -0.119037
v 0.334044 -0.116814 -0.390656
v -0.842074 -0.186258 0.164166
v -0.842074 -0.160136 0.190288
v -0.837735 -0.192773 0.012374
v -0.804439 -0.194503 -0.032697
v -0.688303 -0.200149 -0.064674
v 0.776622 -0.197841 -0.054625
v 0.873646 -0.194503 -0.032697
v 0.906942 -0.192773 0.012374
v 0.911281 -0.186258 0.164166
v 0.911281 -0.168133 0.185387
v -0.303223 0.046381 -0.133985
v 0.255805 -0.022524 -0.458161
v 0.047558 -0.020584 -0.449032
v -0.107136 0.022903 -0.244443
v -0.159512 -0.009904 -0.398788
v 0.140300 -0.011868 -0.408026
v -0.183318 0.050541 -0.114413
v -0.061360 0.035771 -0.183903
v 0.171002 -0.003237 -0.367422
v 0.247039 0.053423 -0.100856
v 0.109101 0.038787 -0.169711
v 0.164678 0.027713 -0.221814
v 0.234163 0.050746 -0.113450
v -0.216576 -0.022792 -0.459421
v -0.193357 -0.020675 -0.449459
v -0.167745 -0.014890 -0.422245
v -0.111455 0.001761 -0.343906
v -0.101795 -0.003237 -0.367422
v -0.071093 -0.011868 -0.408026
v -0.296265 -0.017105 -0.432662
v 0.495648 0.053695 -0.099576
v 0.034603 0.042820 -0.150737
v -0.159512 0.041395 -0.157442
v 0.454185 0.040658 -0.160912
v 0.183929 0.017752 -0.268675
v -0.254392 -0.022792 -0.459421
v -0.311456 0.041395 -0.157442
v -0.308333 -0.012468 -0.410850
v 0.362343 -0.021932 -0.455374
v 0.231315 -0.017432 -0.434205
v -0.516537 -0.055843 -0.137887
v -0.516537 -0.099326 -0.128644
v -0.529529 -0.060231 -0.158527
v -0.529529 -0.103713 -0.149284
v -0.526382 -0.065341 -0.182569
v -0.526382 -0.108823 -0.173327
v -0.513998 -0.068266 -0.196332
v -0.513998 -0.111749 -0.187090
v -0.502543 -0.112825 -0.192154
v -0.496326 -0.069565 -0.202440
v -0.496326 -0.113047 -0.193197
v -0.483800 -0.069343 -0.201397
v -0.472345 -0.068266 -0.196332
v -0.472345 -0.111749 -0.187090
v -0.457609 -0.064124 -0.176844
v -0.457609 -0.107606 -0.167602
v -0.456013 -0.061532 -0.164647
v -0.456013 -0.105014 -0.155405
v -0.465252 -0.056751 -0.142156
v -0.465252 -0.100233 -0.132914
v -0.486886 -0.054238 -0.130335
v -0.486886 -0.097721 -0.121092
v -0.643544 -0.027234 -0.192466
v -0.641810 -0.017179 -0.194049
v -0.673805 0.063158 -0.056307
v -0.693354 0.020919 -0.066810
v -0.669555 0.067078 -0.053260
v -0.657907 0.065543 -0.054800
v -0.648888 0.059994 -0.062294
v -0.653079 0.060387 -0.061152
v -0.687169 0.015418 -0.071678
v -0.634348 0.059263 -0.066680
v -0.668026 0.056995 -0.061923
v -0.648263 0.054988 -0.069284
v -0.642273 0.055046 -0.071790
v -0.683719 0.023084 -0.072741
v -0.672660 0.016737 -0.084024
v -0.675856 0.006934 -0.083392
v -0.477883 -0.278306 -0.407187
v -0.481589 -0.272398 -0.389876
v -0.475166 -0.290392 -0.440561
v -0.473948 -0.297932 -0.454267
v -0.473956 -0.312659 -0.489030
v -0.483611 -0.286798 -0.466681
v -0.483421 -0.294235 -0.476333
v -0.837740 0.227856 0.012389
v -0.832422 0.227856 -0.000449
v -0.805571 0.227856 -0.031888
v -0.383455 -0.328572 -0.594078
v -0.380831 -0.320570 -0.591942
v -0.313847 -0.299317 -0.515583
v -0.356304 -0.315371 -0.546236
v -0.355695 -0.313753 -0.546078
v -0.404897 -0.356255 -0.617819
v -0.412153 -0.363244 -0.630301
v -0.377680 -0.326688 -0.577033
v -0.382416 -0.334564 -0.580070
v -0.366097 -0.315555 -0.560267
v -0.302642 -0.154158 -0.539356
v -0.323421 -0.154704 -0.547993
v -0.364844 -0.322738 -0.545917
v -0.321401 -0.305693 -0.510793
v -0.471299 -0.283087 -0.404585
v 0.904639 0.192693 0.198716
v -0.835433 0.192693 0.198716
v 0.904639 0.226029 0.169481
v -0.835433 0.226029 0.169481
v -0.835433 0.233538 0.148277
v 0.904639 -0.192175 0.167181
v -0.835433 -0.192175 0.167181
v 0.904639 -0.172037 0.190760
v 0.904639 -0.163151 0.196206
v -0.835433 -0.163151 0.196206
v 0.904639 -0.153522 0.200194
v -0.835433 -0.153522 0.200194
v 0.904639 -0.143389 0.202627
v -0.835433 -0.143389 0.202627
v 0.904639 -0.132999 0.203445
v -0.835433 -0.132999 0.203445
v 0.712233 0.063730 -0.057255
v 0.738761 0.067078 -0.053260
v -0.826505 0.234497 0.002566
v 0.870874 0.234497 -0.026515
v -0.756731 0.159432 0.203445
v -0.753557 0.161903 0.203445
v -0.750020 0.163817 0.203445
v -0.746216 0.165123 0.203445
v -0.759455 0.156473 0.203445
v -0.721020 0.156473 0.203445
v 0.786412 0.149423 0.203445
v 0.790227 0.156473 0.203445
v 0.832477 0.149423 0.203445
v -0.742249 0.165785 0.203445
v -0.738227 0.165785 0.203445
v -0.734260 0.165123 0.203445
v -0.730456 0.163817 0.203445
v -0.726918 0.161903 0.203445
v -0.723744 0.159432 0.203445
v 0.815423 0.165123 0.203445
v 0.822764 0.161903 0.203445
v 0.796125 0.161903 0.203445
v 0.803466 0.165123 0.203445
v 0.807434 0.165785 0.203445
v 0.811456 0.165785 0.203445
v -0.842074 0.190232 0.192548
v -0.842074 0.226992 0.147152
v -0.694406 -0.205219 -0.051845
v -0.416862 -0.235592 -0.194737
v -0.416841 -0.208967 -0.069475
v -0.542978 -0.240215 -0.216487
v -0.586793 -0.215197 -0.098784
v -0.591278 -0.225876 -0.149029
v 0.545021 -0.242838 -0.228829
v 0.484800 -0.209024 -0.069742
v 0.612375 -0.240381 -0.217266
v 0.485718 -0.235759 -0.195522
v 0.656539 -0.229526 -0.166197
v 0.461973 -0.222426 -0.132795
v 0.657027 -0.215308 -0.099309
v -0.493172 -0.242989 -0.229539
v -0.619497 -0.504933 -1.005613
v -0.634045 -0.469933 -0.994259
v -0.582020 -0.473344 -0.957216
v -0.582581 -0.476206 -0.961597
v -0.559075 -0.492332 -0.955321
v -0.561556 -0.491658 -0.955440
v -0.561754 -0.491595 -0.955450
v -0.631460 -0.506443 -1.016202
v -0.621275 -0.468913 -0.993085
v -0.629206 -0.466406 -0.994070
v -0.614399 -0.475014 -0.991173
v -0.621750 -0.472007 -0.993051
v -0.614030 -0.472013 -0.991044
v -0.600020 -0.494724 -0.990409
v -0.618583 -0.506825 -1.007723
v -0.624540 -0.507977 -1.013152
v -0.629375 -0.496062 -1.001493
v -0.629797 -0.493744 -1.000143
v -0.630027 -0.504015 -1.010246
v -0.630929 -0.502113 -1.008154
v -0.633316 -0.503517 -1.012133
v -0.563713 -0.497399 -0.969165
v -0.586876 -0.494040 -0.982149
v -0.593021 -0.495354 -0.987288
v -0.596892 -0.492678 -0.987576
v -0.591807 -0.499669 -0.990561
v -0.592460 -0.497552 -0.988853
v -0.591057 -0.501704 -0.992417
v -0.582853 -0.503975 -0.991856
v -0.583841 -0.502146 -0.989631
v -0.590210 -0.503654 -0.994424
v -0.581773 -0.505723 -0.994223
v -0.587249 -0.470878 -0.967620
v -0.584841 -0.474819 -0.965072
v -0.591822 -0.468149 -0.974489
v -0.594644 -0.472614 -0.978493
v -0.594300 -0.466951 -0.977627
v -0.596927 -0.465881 -0.980536
v -0.586953 -0.475987 -0.969475
v -0.584538 -0.477240 -0.966239
v -0.586450 -0.480917 -0.971649
v -0.583805 -0.481971 -0.968769
v -0.588297 -0.487221 -0.977859
v -0.579411 -0.489561 -0.970685
v -0.597431 -0.471683 -0.981154
v -0.589424 -0.474782 -0.972625
v -0.587894 -0.489555 -0.979179
v -0.584821 -0.490239 -0.976961
v -0.566096 -0.494095 -0.964086
v -0.559136 -0.494758 -0.960906
v -0.589479 -0.469464 -0.971142
v -0.591980 -0.473652 -0.975642
v -0.584262 -0.492438 -0.978522
v -0.590623 -0.491257 -0.982628
v -0.470454 -0.321528 -0.507398
v -0.721348 -0.214682 -1.071214
v -0.720886 -0.214578 -1.070143
v -0.699212 -0.220324 -1.048678
v -0.700283 -0.219812 -1.049120
v -0.754360 -0.282720 -1.247774
v -0.753393 -0.285310 -1.251888
v -0.745706 -0.295560 -1.263247
v -0.744144 -0.297070 -1.264375
v -0.534370 -0.308360 -1.032211
v -0.540617 -0.306259 -1.034052
v -0.578931 -0.295278 -1.039559
v -0.562558 -0.302452 -1.035050
v -0.584893 -0.338782 -0.991155
v -0.578807 -0.327917 -0.992625
v -0.574424 -0.322772 -0.986446
v -0.572378 -0.321590 -0.993744
v -0.565931 -0.317621 -0.994714
v -0.561855 -0.315971 -0.995271
v -0.574284 -0.304478 -1.033053
v -0.607708 -0.332094 -1.022497
v -0.564952 -0.316368 -1.009223
v -0.576459 -0.322069 -1.007251
v -0.588399 -0.335741 -1.004144
v -0.590509 -0.340342 -1.003268
v -0.587307 -0.322507 -1.018232
v -0.596884 -0.334901 -1.014747
v -0.571702 -0.308890 -1.028022
v -0.591631 -0.320048 -1.023192
v -0.586229 -0.549231 -1.141148
v -0.588325 -0.546615 -1.153106
v -0.534638 -0.542088 -1.181900
v -0.535586 -0.539073 -1.187686
v -0.523069 -0.552027 -1.147629
v -0.529140 -0.541913 -1.182722
v -0.535746 -0.503054 -1.226844
v -0.530205 -0.502553 -1.226766
v -0.519622 -0.500172 -1.224443
v -0.514841 -0.498352 -1.222255
v -0.510560 -0.496169 -1.219451
v -0.513084 -0.514309 -1.209316
v -0.517802 -0.516703 -1.211038
v -0.513399 -0.536802 -1.182847
v -0.508836 -0.533710 -1.182104
v -0.507682 -0.546332 -1.149764
v -0.505941 -0.546864 -1.113996
v -0.501295 -0.544220 -1.115521
v -0.506716 -0.436323 -1.235873
v -0.504220 -0.434103 -1.230838
v -0.507849 -0.424169 -1.233944
v -0.509081 -0.417849 -1.229916
v -0.510826 -0.419656 -1.235102
v -0.509434 -0.417385 -1.230025
v -0.514806 -0.441484 -1.244504
v -0.521497 -0.435999 -1.249335
v -0.513305 -0.429734 -1.243121
v -0.519179 -0.422152 -1.244902
v -0.518539 -0.421325 -1.244042
v -0.723024 -0.297964 -1.270772
v -0.724984 -0.300865 -1.270447
v -0.729814 -0.297390 -1.270293
v -0.709675 -0.273293 -1.259037
v -0.712583 -0.276370 -1.262977
v -0.726315 -0.292801 -1.270652
v -0.743134 -0.271750 -1.253027
v -0.740200 -0.278302 -1.261598
v -0.725065 -0.270273 -1.260134
v -0.723332 -0.272688 -1.262419
v -0.713658 -0.269454 -1.257050
v -0.734359 -0.285612 -1.267718
v -0.714252 -0.207083 -1.087447
v -0.712607 -0.206146 -1.088128
v -0.696257 -0.216001 -1.050735
v -0.700899 -0.213909 -1.052968
v -0.705349 -0.212315 -1.055893
v -0.713245 -0.210761 -1.063515
v -0.681447 -0.202207 -1.078897
v -0.691334 -0.201618 -1.091033
v -0.697041 -0.201138 -1.089275
v -0.687437 -0.202541 -1.068575
v -0.693887 -0.200551 -1.073427
v -0.690760 -0.204122 -1.063847
v -0.702155 -0.204134 -1.065593
v -0.705630 -0.203674 -1.069376
v -0.711125 -0.204352 -1.078040
v -0.697589 -0.209889 -1.055930
v -0.701940 -0.208330 -1.058790
v -0.569837 -0.293449 -1.041802
v -0.541381 -0.302781 -1.038816
v -0.538295 -0.301366 -1.042979
v -0.492509 -0.316417 -1.008543
v -0.499892 -0.316420 -1.017634
v -0.487946 -0.321277 -1.025880
v -0.520391 -0.307341 -1.052352
v -0.513919 -0.310749 -1.043421
v -0.522681 -0.306271 -1.048030
v -0.489390 -0.318528 -1.016425
v -0.493665 -0.318057 -1.021855
v -0.502082 -0.315818 -1.029970
v -0.516584 -0.309977 -1.039634
v -0.492520 -0.317434 -1.014784
v -0.496733 -0.317034 -1.019757
v -0.505060 -0.315039 -1.027163
v -0.531182 -0.306890 -1.035782
v -0.801974 -0.362529 -1.031849
v -0.800149 -0.361564 -1.026924
v -0.778686 -0.366719 -1.005300
v -0.793098 -0.367221 -1.013194
v -0.796386 -0.366630 -1.016943
v -0.824860 -0.421517 -1.182096
v -0.825144 -0.411229 -1.174961
v -0.685165 -0.527631 -1.152016
v -0.686742 -0.526864 -1.150486
v -0.691179 -0.525024 -1.156518
v -0.615552 -0.529767 -1.182492
v -0.627298 -0.536477 -1.167480
v -0.660053 -0.533441 -1.122151
v -0.657059 -0.535466 -1.125357
v -0.688280 -0.525978 -1.148920
v -0.680628 -0.529163 -1.145892
v -0.682155 -0.528244 -1.144317
v -0.689777 -0.524967 -1.147317
v -0.550657 0.002767 -0.290404
v -0.509518 -0.054783 -0.374776
v -0.398543 -0.179089 -0.631743
v -0.503645 -0.183041 -0.609324
v -0.502456 -0.181514 -0.610148
v -0.488450 -0.150338 -0.531602
v -0.486995 -0.149713 -0.539149
v -0.482918 -0.103735 -0.419958
v -0.376066 -0.097429 -0.542017
v -0.386699 -0.100577 -0.542813
v -0.370632 -0.106379 -0.547777
v -0.377181 -0.148048 -0.576832
v -0.384520 -0.143527 -0.576000
v -0.510015 -0.058625 -0.374823
v -0.502548 -0.180499 -0.600073
v -0.501238 -0.179874 -0.609252
v -0.448197 -0.156952 -0.593165
v -0.401657 -0.175558 -0.628742
v -0.358617 -0.166505 -0.573297
v -0.377619 -0.159642 -0.586172
v -0.372866 -0.160476 -0.583006
v -0.363098 -0.165324 -0.576973
v -0.370387 -0.153357 -0.576685
v -0.365579 -0.153874 -0.573804
v -0.372166 -0.148201 -0.574402
v -0.379300 -0.143318 -0.574029
v -0.381600 -0.138712 -0.571063
v -0.376374 -0.138340 -0.569255
v -0.362364 -0.148704 -0.569230
v -0.364150 -0.143158 -0.567382
v -0.361151 -0.137592 -0.563231
v -0.354359 -0.143280 -0.562590
v -0.316839 -0.136105 -0.545098
v -0.346378 -0.137133 -0.556800
v -0.320541 -0.122046 -0.544916
v -0.328554 -0.129657 -0.548337
v -0.330519 -0.123080 -0.547716
v -0.348293 -0.131046 -0.555586
v -0.306710 -0.135649 -0.542040
v -0.383859 -0.124556 -0.560333
v -0.394769 -0.126643 -0.562241
v -0.376234 -0.077636 -0.528813
v -0.360598 -0.063300 -0.520951
v -0.355644 -0.071180 -0.527478
v -0.304770 -0.106312 -0.540111
v -0.289913 -0.119210 -0.539379
v -0.408625 -0.042097 -0.479985
v -0.398593 -0.038447 -0.479709
v -0.432120 -0.033393 -0.449874
v -0.383034 -0.046487 -0.497909
v -0.393265 -0.050044 -0.498270
v -0.410493 -0.036507 -0.470156
v -0.420208 -0.040432 -0.470117
v -0.427471 -0.031328 -0.449910
v -0.469292 -0.094820 -0.465296
v -0.473496 -0.102811 -0.459704
v -0.476665 -0.111336 -0.453811
v -0.479427 -0.115284 -0.438014
v -0.477133 -0.106008 -0.444455
v -0.482278 -0.061918 -0.413417
v -0.479577 -0.057926 -0.416114
v -0.478712 -0.014035 -0.373761
v -0.473780 -0.011498 -0.373553
v -0.501558 -0.178042 -0.590743
v -0.500309 -0.177286 -0.599814
v -0.499491 -0.174802 -0.590686
v -0.498378 -0.173285 -0.590649
v -0.497206 -0.171828 -0.590612
v -0.495972 -0.170424 -0.590576
v -0.489067 -0.166904 -0.598666
v -0.487359 -0.165895 -0.598500
v -0.485582 -0.164974 -0.598317
v -0.500620 -0.175711 -0.581734
v -0.499698 -0.174032 -0.581809
v -0.498716 -0.172425 -0.581879
v -0.497674 -0.170883 -0.581946
v -0.496954 -0.168595 -0.573554
v -0.495400 -0.167973 -0.582077
v -0.495917 -0.167088 -0.573717
v -0.494162 -0.166608 -0.582140
v -0.493631 -0.164271 -0.574032
v -0.491066 -0.170682 -0.607530
v -0.487828 -0.171406 -0.615800
v -0.489359 -0.169609 -0.607271
v -0.485914 -0.170517 -0.615403
v -0.485745 -0.167688 -0.606719
v -0.483841 -0.166858 -0.606416
v -0.481879 -0.166130 -0.606087
v -0.489245 -0.158320 -0.566872
v -0.486633 -0.158474 -0.574668
v -0.495224 -0.164906 -0.565712
v -0.493062 -0.162059 -0.566201
v -0.491866 -0.160741 -0.566435
v -0.491173 -0.155411 -0.536950
v -0.490265 -0.153899 -0.537510
v -0.492774 -0.159350 -0.550935
v -0.491998 -0.157381 -0.543815
v -0.490682 -0.156548 -0.551736
v -0.489512 -0.155247 -0.552125
v -0.490006 -0.154505 -0.544774
v -0.488258 -0.154009 -0.552504
v -0.488880 -0.153161 -0.545242
v -0.494484 -0.162836 -0.557983
v -0.493502 -0.161360 -0.558315
v -0.491301 -0.158615 -0.558955
v -0.487403 -0.155011 -0.559846
v -0.485945 -0.153939 -0.560122
v -0.489416 -0.151843 -0.530973
v -0.488176 -0.151052 -0.538610
v -0.487665 -0.151876 -0.545702
v -0.486365 -0.150646 -0.546154
v -0.485501 -0.151712 -0.553236
v -0.487554 -0.148146 -0.525388
v -0.485577 -0.143380 -0.513683
v -0.486587 -0.145837 -0.519416
v -0.485398 -0.145172 -0.526777
v -0.486239 -0.147488 -0.532842
v -0.484978 -0.149469 -0.546599
v -0.463009 -0.153363 -0.581487
v -0.465308 -0.150876 -0.575043
v -0.453337 -0.151319 -0.581065
v -0.388633 -0.178947 -0.616755
v -0.392156 -0.174167 -0.615366
v -0.387696 -0.175577 -0.611419
v -0.391363 -0.170860 -0.609959
v -0.389030 -0.171443 -0.608173
v -0.384466 -0.172853 -0.604402
v -0.385783 -0.168509 -0.601424
v -0.382244 -0.173669 -0.602416
v -0.383450 -0.169136 -0.599652
v -0.381161 -0.169824 -0.597813
v -0.378913 -0.170565 -0.595910
v -0.382503 -0.165253 -0.595061
v -0.391063 -0.156207 -0.591439
v -0.395916 -0.152343 -0.588777
v -0.380152 -0.165808 -0.593363
v -0.385907 -0.156494 -0.588977
v -0.390565 -0.152246 -0.586767
v -0.480314 -0.146211 -0.547892
v -0.469282 -0.132458 -0.533395
v -0.470498 -0.130512 -0.527594
v -0.457049 -0.132743 -0.546924
v -0.467694 -0.125977 -0.523400
v -0.465111 -0.130183 -0.534635
v -0.473423 -0.107945 -0.469116
v -0.484001 -0.150645 -0.553589
v -0.482419 -0.149628 -0.553933
v -0.482921 -0.145988 -0.540729
v -0.482870 -0.142375 -0.528145
v -0.476110 -0.127945 -0.508705
v -0.463595 -0.123412 -0.524902
v -0.460682 -0.127956 -0.535833
v -0.478914 -0.131140 -0.506800
v -0.471228 -0.108905 -0.481417
v -0.392068 -0.130728 -0.565842
v -0.515694 -0.202589 -0.037562
v -0.786700 -0.202086 -0.034198
v -0.725916 -0.203309 -0.041937
v -0.490834 -0.202219 -0.035116
v 0.586172 -0.202521 -0.037120
v -0.454157 -0.203443 -0.042701
v 0.562470 -0.202113 -0.034385
v 0.573777 -0.202203 -0.035007
v 0.785502 -0.203627 -0.043737
v 0.855907 -0.202086 -0.034198
v -0.555977 -0.091718 -0.092851
v -0.516043 -0.087080 -0.071030
v -0.516043 -0.195720 -0.047938
v -0.513692 -0.195633 -0.047364
v -0.442344 -0.089707 -0.083391
v -0.441681 -0.198074 -0.060819
v -0.423626 -0.201488 -0.076882
v -0.406383 -0.099816 -0.130951
v -0.406383 -0.208089 -0.107937
v -0.408950 -0.112379 -0.190052
v -0.408950 -0.220651 -0.167038
v -0.425035 -0.117810 -0.215606
v -0.423645 -0.225747 -0.191010
v -0.425035 -0.226083 -0.192592
v -0.508511 -0.123942 -0.244455
v -0.477412 -0.232200 -0.221370
v -0.477832 -0.123942 -0.244455
v -0.550193 -0.120025 -0.226026
v -0.538551 -0.229959 -0.210826
v -0.550193 -0.228298 -0.203011
v -0.577393 -0.112379 -0.190052
v -0.577393 -0.220651 -0.167038
v -0.583203 -0.102945 -0.145672
v -0.579960 -0.099816 -0.130951
v -0.578471 -0.207164 -0.103586
v -0.579960 -0.208089 -0.107937
v -0.555977 -0.199990 -0.069837
v -0.534894 0.017584 -0.188540
v -0.563948 0.002299 -0.260452
v -0.522276 0.012381 -0.213018
v -0.528989 0.023280 -0.161742
v -0.524747 0.024473 -0.156131
v -0.557700 0.030897 -0.125908
v -0.513685 0.026330 -0.147395
v -0.534110 0.034709 -0.107976
v -0.500280 0.027315 -0.142762
v -0.486063 0.027315 -0.142762
v -0.448021 0.034211 -0.110315
v -0.461596 0.024473 -0.156131
v -0.454142 0.021956 -0.167973
v -0.407148 0.021695 -0.169200
v -0.452953 0.016134 -0.195361
v -0.469617 0.011449 -0.217402
v -0.448907 0.003069 -0.256830
v -0.489604 0.009981 -0.224309
v -0.489604 -0.070574 -0.207187
v -0.482573 -0.070323 -0.206007
v -0.469617 -0.069105 -0.200279
v -0.464067 -0.068174 -0.195895
v -0.452953 -0.064421 -0.178239
v -0.454142 -0.058599 -0.150850
v -0.461596 -0.056082 -0.139009
v -0.486063 -0.053240 -0.125639
v -0.500280 -0.053240 -0.125639
v -0.528989 -0.057275 -0.144619
v -0.534894 -0.062971 -0.171417
v -0.522276 -0.068174 -0.195895
v -0.560874 0.002495 -0.262945
v -0.594212 0.030339 -0.171067
v -0.597806 0.042324 -0.149276
v -0.598212 0.042365 -0.149087
v -0.603109 0.039461 -0.156783
v -0.605829 0.034426 -0.169966
v -0.601234 0.033820 -0.170796
v -0.602861 0.034169 -0.170554
v -0.598749 0.032985 -0.171047
v -0.600024 0.033461 -0.170936
v -0.596391 0.031816 -0.171138
v -0.595129 0.031014 -0.171118
v -0.572679 0.044786 -0.125222
v -0.576567 0.047879 -0.122768
v -0.431298 0.016379 -0.274085
v -0.516093 0.055803 -0.085488
v -0.429719 0.051936 -0.103682
v -0.387833 0.032014 -0.197407
v -0.432838 0.016206 -0.271778
v -0.434300 0.015605 -0.269493
v -0.447417 0.050559 -0.098061
v -0.432677 0.048654 -0.107026
v -0.395090 0.036835 -0.162630
v -0.392743 0.029660 -0.196381
v -0.603820 0.034265 -0.170484
v -0.606400 0.034375 -0.169952
v -0.599796 0.010559 -0.230713
v -0.592105 0.010512 -0.227247
v -0.600682 0.018848 -0.206915
v -0.598194 0.018161 -0.206188
v -0.569457 0.003110 -0.266690
v -0.572008 -0.001234 -0.277133
v -0.550014 0.004164 -0.288505
v -0.562596 0.003215 -0.264983
v -0.553997 0.004327 -0.270718
v -0.555457 0.004711 -0.272858
v -0.547397 0.006582 -0.282154
v -0.559517 0.003578 -0.279421
v -0.548369 0.006089 -0.284340
v -0.560666 0.002467 -0.281496
v -0.543170 0.006791 -0.288395
v -0.574488 0.002230 -0.266734
v 0.562378 -0.097609 -0.120569
v 0.544240 -0.055109 -0.134431
v 0.544240 -0.098591 -0.125189
v 0.530708 -0.057806 -0.147117
v 0.530708 -0.101288 -0.137875
v 0.525220 -0.061532 -0.164647
v 0.525220 -0.105014 -0.155405
v 0.532476 -0.066458 -0.187824
v 0.532476 -0.109940 -0.178581
v 0.553007 -0.069343 -0.201397
v 0.553007 -0.112825 -0.192154
v 0.562378 -0.069593 -0.202571
v 0.565533 -0.069565 -0.202440
v 0.565533 -0.113047 -0.193197
v 0.588113 -0.067443 -0.192456
v 0.588113 -0.110925 -0.183213
v 0.599537 -0.061532 -0.164647
v 0.599537 -0.105014 -0.155405
v 0.594049 -0.057806 -0.147117
v 0.594049 -0.101288 -0.137875
v 0.585744 -0.099326 -0.128644
v 0.574769 -0.054569 -0.131890
v 0.574769 -0.098051 -0.122647
v 0.684824 0.025558 -0.185778
v 0.682295 -0.018640 -0.247869
v 0.685113 -0.028572 -0.247647
v 0.698311 0.045516 -0.104855
v 0.706481 0.039782 -0.106818
v 0.725299 0.016171 -0.109129
v 0.729183 0.006781 -0.108646
v 0.719017 0.049473 -0.076130
v 0.732210 0.034828 -0.082103
v 0.741867 0.016737 -0.084024
v 0.793095 0.046319 -0.052359
v 0.776928 0.034778 -0.058317
v 0.732206 0.061564 -0.058669
v 0.774119 0.039441 -0.058977
v 0.766258 0.033044 -0.063189
v 0.759198 0.044025 -0.063168
v 0.751284 0.040372 -0.067623
v 0.544066 -0.326307 -0.522155
v 0.546087 -0.298030 -0.465536
v 0.543738 -0.308080 -0.480073
v 0.550800 -0.272393 -0.389861
v 0.556368 -0.267496 -0.372963
v 0.552110 -0.305497 -0.492996
v 0.552566 -0.295946 -0.478712
v 0.874778 0.227856 -0.031888
v 0.906947 0.227856 0.012389
v 0.437836 -0.323339 -0.560468
v 0.425498 -0.315364 -0.546223
v 0.403662 -0.305300 -0.527529
v 0.397456 -0.301084 -0.523897
v 0.386472 -0.300118 -0.517253
v 0.446887 -0.326688 -0.577033
v 0.451488 -0.334443 -0.579860
v 0.474185 -0.356334 -0.617960
v 0.371214 -0.297078 -0.510635
v 0.437345 -0.200346 -0.588793
v 0.407683 -0.193101 -0.554706
v 0.453862 -0.198436 -0.628470
v 0.410410 -0.163770 -0.558837
v 0.409266 -0.169437 -0.558206
v 0.453980 -0.197825 -0.628392
v 0.388758 -0.179039 -0.543922
v 0.423590 -0.188807 -0.571093
v 0.437712 -0.184560 -0.589044
v 0.477893 -0.359307 -0.621945
v 0.434052 -0.322738 -0.545918
v 0.373193 -0.302239 -0.503052
v 0.538322 -0.289441 -0.422647
v 0.550133 -0.272950 -0.369168
v 0.911281 0.190232 0.192548
v 0.911281 0.220234 0.166236
v 0.656231 -0.457795 -0.965511
v 0.659160 -0.457904 -0.972017
v 0.659029 -0.457901 -0.971776
v 0.680393 -0.457721 -0.991648
v 0.543051 -0.337599 -0.549627
v 0.768419 -0.220324 -1.048678
v 0.769490 -0.219812 -1.049120
v 0.822600 -0.285310 -1.251888
v 0.813351 -0.297070 -1.264375
v 0.814913 -0.295560 -1.263247
v 0.823567 -0.282720 -1.247774
v 0.619361 -0.314147 -0.996584
v 0.619410 -0.314213 -0.996914
v 0.603577 -0.308360 -1.032211
v 0.631765 -0.302452 -1.035050
v 0.632736 -0.298908 -1.038163
v 0.637878 -0.297711 -1.038658
v 0.654100 -0.338782 -0.991155
v 0.652262 -0.334535 -0.991690
v 0.676915 -0.332094 -1.022497
v 0.641585 -0.321590 -0.993744
v 0.666091 -0.334901 -1.014747
v 0.656514 -0.322507 -1.018232
v 0.652678 -0.324219 -1.012603
v 0.659716 -0.340342 -1.003268
v 0.649426 -0.325144 -1.006446
v 0.645666 -0.322069 -1.007251
v 0.631062 -0.315971 -0.995271
v 0.628016 -0.315102 -0.995658
v 0.643491 -0.304478 -1.033053
v 0.640909 -0.308890 -1.028022
v 0.636181 -0.314914 -1.015949
v 0.627707 -0.313392 -0.988717
v 0.627015 -0.313210 -0.988804
v 0.604793 -0.539073 -1.187686
v 0.603845 -0.542088 -1.181900
v 0.604953 -0.503054 -1.226844
v 0.598346 -0.541913 -1.182722
v 0.599412 -0.502553 -1.226766
v 0.592885 -0.540955 -1.183160
v 0.584318 -0.551555 -1.134404
v 0.580187 -0.548736 -1.112578
v 0.575148 -0.546864 -1.113996
v 0.582606 -0.536802 -1.182847
v 0.574017 -0.530037 -1.180991
v 0.568734 -0.538848 -1.150402
v 0.563221 -0.529229 -1.150331
v 0.572878 -0.428352 -1.226957
v 0.573372 -0.426898 -1.227418
v 0.574835 -0.429025 -1.232511
v 0.577056 -0.424169 -1.233944
v 0.573427 -0.434103 -1.230838
v 0.584013 -0.441484 -1.244504
v 0.595135 -0.430277 -1.250679
v 0.593639 -0.428551 -1.249804
v 0.590703 -0.435999 -1.249335
v 0.794191 -0.300865 -1.270447
v 0.792231 -0.297964 -1.270772
v 0.788414 -0.283967 -1.268569
v 0.820743 -0.278925 -1.249740
v 0.799021 -0.297390 -1.270293
v 0.795522 -0.292801 -1.270652
v 0.803566 -0.285612 -1.267718
v 0.799537 -0.272353 -1.261316
v 0.794272 -0.270273 -1.260134
v 0.790490 -0.265480 -1.253859
v 0.796232 -0.265896 -1.254407
v 0.801887 -0.267105 -1.254450
v 0.812341 -0.271750 -1.253027
v 0.790621 -0.264063 -1.251329
v 0.784904 -0.264902 -1.251095
v 0.791747 -0.214436 -1.082996
v 0.790206 -0.212616 -1.083999
v 0.788376 -0.211492 -1.072855
v 0.770106 -0.213909 -1.052968
v 0.765464 -0.216001 -1.050735
v 0.750654 -0.202207 -1.078897
v 0.753345 -0.202443 -1.089205
v 0.758249 -0.200712 -1.086230
v 0.768340 -0.200239 -1.079867
v 0.756644 -0.202541 -1.068575
v 0.775515 -0.202065 -1.080770
v 0.773239 -0.201510 -1.076660
v 0.771361 -0.204134 -1.065593
v 0.763383 -0.206595 -1.059591
v 0.784660 -0.207525 -1.075376
v 0.778868 -0.206810 -1.066244
v 0.775205 -0.207295 -1.062256
v 0.625103 -0.285771 -1.067891
v 0.628548 -0.285770 -1.057979
v 0.637470 -0.278784 -1.064251
v 0.641437 -0.281285 -1.054000
v 0.548699 -0.317936 -1.003509
v 0.545622 -0.319535 -1.003832
v 0.560448 -0.316063 -1.006297
v 0.564936 -0.316714 -1.013089
v 0.610588 -0.302781 -1.038816
v 0.558597 -0.318528 -1.016425
v 0.571289 -0.315818 -1.029970
v 0.581058 -0.312757 -1.031776
v 0.594485 -0.305836 -1.043771
v 0.607502 -0.301366 -1.042979
v 0.555579 -0.319985 -1.017994
v 0.565102 -0.318175 -1.029597
v 0.583126 -0.310749 -1.043421
v 0.572878 -0.315858 -1.041638
v 0.852300 -0.364633 -1.007479
v 0.856505 -0.362997 -1.010336
v 0.847893 -0.366719 -1.005300
v 0.858638 -0.368300 -1.009936
v 0.865593 -0.366630 -1.016943
v 0.894067 -0.421517 -1.182096
v 0.816991 -0.492111 -1.169170
v 0.738885 -0.526266 -1.172523
v 0.815614 -0.493115 -1.166360
v 0.813174 -0.492582 -1.177993
v 0.804613 -0.496459 -1.181065
v 0.772394 -0.517615 -1.169464
v 0.770638 -0.517829 -1.170830
v 0.755949 -0.526864 -1.150486
v 0.751362 -0.528244 -1.144317
v 0.749835 -0.529163 -1.145892
v 0.752758 -0.528283 -1.153513
v 0.748271 -0.529968 -1.147434
v 0.759458 -0.523524 -1.166561
v 0.757727 -0.519551 -1.175870
v 0.754008 -0.523606 -1.170494
v 0.735035 -0.529919 -1.167028
v 0.751109 -0.528827 -1.154977
v 0.757668 -0.523633 -1.167896
v 0.761487 -0.519888 -1.173364
v 0.593889 0.009602 -0.295567
v 0.558833 -0.015335 -0.366248
v 0.613587 0.004629 -0.292377
v 0.516202 -0.128981 -0.548510
v 0.550624 -0.132628 -0.479426
v 0.529889 -0.127956 -0.535833
v 0.451498 -0.147987 -0.579120
v 0.506774 -0.029983 -0.439546
v 0.510202 -0.038026 -0.449139
v 0.442723 -0.133081 -0.564783
v 0.411275 -0.156793 -0.558777
v 0.556508 -0.124798 -0.405322
v 0.420644 -0.155629 -0.564796
v 0.421972 -0.149347 -0.563827
v 0.423566 -0.143280 -0.562590
v 0.412448 -0.150006 -0.558410
v 0.440437 -0.138038 -0.567331
v 0.425400 -0.137423 -0.561101
v 0.413893 -0.143453 -0.557746
v 0.415585 -0.137133 -0.556800
v 0.417500 -0.131046 -0.555586
v 0.427447 -0.131771 -0.559376
v 0.429677 -0.126319 -0.557432
v 0.397761 -0.129657 -0.548337
v 0.491658 -0.087036 -0.518908
v 0.409406 -0.057634 -0.518969
v 0.363771 -0.105068 -0.539136
v 0.359120 -0.119210 -0.539379
v 0.389018 -0.053008 -0.516430
v 0.384308 -0.061292 -0.523218
v 0.494686 -0.056892 -0.487354
v 0.485241 -0.052182 -0.488657
v 0.512025 -0.026645 -0.429171
v 0.548296 -0.125097 -0.457863
v 0.550031 -0.133686 -0.465748
v 0.546041 -0.116233 -0.463561
v 0.543233 -0.097316 -0.450646
v 0.542702 -0.102811 -0.459704
v 0.545871 -0.111336 -0.453811
v 0.545971 -0.085423 -0.433584
v 0.549996 -0.109700 -0.428745
v 0.548193 -0.079122 -0.425577
v 0.543829 -0.070838 -0.431622
v 0.515539 -0.034691 -0.438906
v 0.571696 -0.061611 -0.384150
v 0.566686 -0.060857 -0.390489
v 0.570678 -0.053753 -0.383878
v 0.560034 -0.063527 -0.400325
v 0.563782 -0.056658 -0.393435
v 0.557356 -0.059352 -0.403284
v 0.560738 -0.052604 -0.396139
v 0.551485 -0.061918 -0.413417
v 0.557555 -0.048681 -0.398594
v 0.551524 -0.051399 -0.408485
v 0.552731 -0.016776 -0.373644
v 0.536479 -0.022255 -0.398261
v 0.541890 -0.019454 -0.388318
v 0.537567 -0.014158 -0.383354
v 0.542689 -0.014066 -0.378545
v 0.547467 -0.016738 -0.378541
v 0.548310 -0.011408 -0.368923
v 0.525953 -0.028250 -0.418456
v 0.526800 -0.022589 -0.408556
v 0.531179 -0.025186 -0.408316
v 0.532300 -0.016933 -0.393346
v 0.520759 -0.031426 -0.428662
v 0.517168 -0.023389 -0.418806
v 0.522269 -0.020235 -0.408500
v 0.550909 -0.158323 -0.582282
v 0.549051 -0.157629 -0.582229
v 0.545164 -0.156405 -0.582083
v 0.547075 -0.154440 -0.574973
v 0.541059 -0.155332 -0.581901
v 0.547135 -0.159587 -0.589617
v 0.572853 -0.183217 -0.581372
v 0.573434 -0.183494 -0.590772
v 0.569702 -0.177048 -0.563854
v 0.570688 -0.177465 -0.581652
v 0.567450 -0.171264 -0.556242
v 0.565784 -0.167553 -0.548810
v 0.567882 -0.171414 -0.564674
v 0.564161 -0.163925 -0.541813
v 0.566174 -0.167683 -0.556952
v 0.558540 -0.151320 -0.523978
v 0.561197 -0.156986 -0.536383
v 0.558234 -0.150848 -0.517083
v 0.552837 -0.161567 -0.590078
v 0.564504 -0.164064 -0.549677
v 0.562564 -0.160328 -0.535231
v 0.562852 -0.160518 -0.542827
v 0.560959 -0.156703 -0.529051
v 0.552258 -0.141349 -0.474528
v 0.553179 -0.139474 -0.488720
v 0.472937 -0.172253 -0.624106
v 0.470864 -0.175558 -0.628742
v 0.466433 -0.176310 -0.625009
v 0.470182 -0.169388 -0.616468
v 0.471851 -0.163052 -0.606339
v 0.463629 -0.173606 -0.617241
v 0.465324 -0.169952 -0.613339
v 0.468726 -0.159712 -0.599818
v 0.460570 -0.170860 -0.609959
v 0.462217 -0.167045 -0.606344
v 0.473718 -0.156444 -0.596542
v 0.457673 -0.156326 -0.590238
v 0.452591 -0.156706 -0.587656
v 0.473055 -0.149103 -0.586351
v 0.467500 -0.148584 -0.584862
v 0.465123 -0.152343 -0.588777
v 0.464476 -0.144281 -0.579427
v 0.462047 -0.148234 -0.583158
v 0.454553 -0.152327 -0.584527
v 0.455777 -0.160487 -0.593554
v 0.478686 -0.149789 -0.587638
v 0.489718 -0.144186 -0.579143
v 0.551045 -0.163421 -0.597881
v 0.536679 -0.148529 -0.568622
v 0.542842 -0.147809 -0.561803
v 0.526256 -0.132743 -0.546924
v 0.530984 -0.134642 -0.546054
v 0.537077 -0.134469 -0.539248
v 0.538499 -0.094820 -0.465296
v 0.472292 -0.123958 -0.559083
v 0.520367 -0.123603 -0.538060
v 0.483374 -0.118178 -0.551093
v 0.507941 -0.103072 -0.523257
v 0.497818 -0.098227 -0.525428
v 0.501653 -0.091980 -0.516838
v 0.625184 -0.091718 -0.092851
v 0.625184 -0.199232 -0.069998
v 0.647939 -0.206556 -0.104459
v 0.652411 -0.102945 -0.145672
v 0.652411 -0.210459 -0.122819
v 0.646600 -0.112379 -0.190052
v 0.646600 -0.219892 -0.167200
v 0.619400 -0.120025 -0.226026
v 0.607575 -0.229222 -0.211090
v 0.619400 -0.227539 -0.203173
v 0.546688 -0.231443 -0.221543
v 0.547039 -0.123942 -0.244455
v 0.494242 -0.117810 -0.215606
v 0.493079 -0.225044 -0.191434
v 0.494242 -0.225324 -0.192753
v 0.471693 -0.106143 -0.160717
v 0.471693 -0.213657 -0.137864
v 0.499573 -0.091718 -0.092851
v 0.492249 -0.200875 -0.077731
v 0.499573 -0.199232 -0.069998
v 0.554681 -0.086539 -0.068485
v 0.554681 -0.194629 -0.045510
v 0.583887 -0.194949 -0.047750
v 0.603497 0.020538 -0.174646
v 0.601408 0.021956 -0.167973
v 0.652056 0.021487 -0.170180
v 0.579704 0.010726 -0.220805
v 0.558811 0.009981 -0.224309
v 0.538824 0.011449 -0.217402
v 0.495348 0.007091 -0.237907
v 0.524819 0.014758 -0.201837
v 0.520354 0.019066 -0.181567
v 0.530803 0.024473 -0.156131
v 0.494692 0.030134 -0.129500
v 0.555270 0.027315 -0.142762
v 0.559957 0.036823 -0.098028
v 0.574925 0.036642 -0.098882
v 0.576391 0.026941 -0.144520
v 0.582892 0.026330 -0.147395
v 0.626906 0.030897 -0.125908
v 0.599938 0.014758 -0.201837
v 0.558811 -0.070574 -0.207187
v 0.562378 -0.070605 -0.207335
v 0.579704 -0.069829 -0.203682
v 0.599938 -0.065797 -0.184714
v 0.604403 -0.061489 -0.164445
v 0.601408 -0.058599 -0.150850
v 0.582892 -0.054225 -0.130272
v 0.555270 -0.053240 -0.125639
v 0.530803 -0.056082 -0.139009
v 0.520354 -0.061489 -0.164445
v 0.524819 -0.065797 -0.184714
v 0.538824 -0.069105 -0.200279
v 0.663419 0.030339 -0.171067
v 0.670421 0.033815 -0.170799
v 0.664593 0.031188 -0.171126
v 0.669419 0.033522 -0.170917
v 0.667909 0.032966 -0.171050
v 0.665528 0.031775 -0.171138
v 0.674956 0.034426 -0.169985
v 0.517844 0.014325 -0.280627
v 0.498926 0.051936 -0.103682
v 0.531265 0.055354 -0.087604
v 0.585300 0.055803 -0.085488
v 0.645773 0.047879 -0.122768
v 0.469250 0.023949 -0.230234
v 0.461995 0.038372 -0.162381
v 0.476173 0.045115 -0.130656
v 0.500465 0.050468 -0.105472
v 0.480226 0.019637 -0.243538
v 0.471385 0.022743 -0.228928
v 0.488932 0.046251 -0.118328
v 0.501884 0.048654 -0.107026
v 0.641886 0.044786 -0.125222
v 0.661311 0.010512 -0.227247
v 0.666393 0.010976 -0.229683
v 0.668250 0.021328 -0.198038
v 0.682587 0.026535 -0.186280
v 0.659815 0.009133 -0.232679
v 0.642149 0.001455 -0.270754
v 0.633551 0.003512 -0.267104
v 0.631803 0.003215 -0.264983
v 0.654615 -0.001987 -0.265785
v 0.638144 0.003128 -0.260946
v -0.759455 0.156473 0.119319
v -0.756731 0.159432 0.119319
v -0.753557 0.161903 0.119319
v -0.750020 0.163817 0.119319
v -0.746216 0.165123 0.119319
v -0.742249 0.165785 0.119319
v -0.738227 0.165785 0.119319
v -0.734260 0.165123 0.119319
v -0.730456 0.163817 0.119319
v -0.726918 0.161903 0.119319
v -0.723744 0.159432 0.119319
v -0.721020 0.156473 0.119319
v 0.786412 0.149423 0.163596
v 0.790227 0.156473 0.163596
v 0.796125 0.161903 0.163596
v 0.803466 0.165123 0.163596
v 0.807434 0.165785 0.163596
v 0.811456 0.165785 0.163596
v 0.815423 0.165123 0.163596
v 0.832477 0.149423 0.163596
v 0.047558 0.033812 -0.460594
v 0.140300 0.042528 -0.419588
v 0.171002 0.051159 -0.378984
v 0.183929 0.072148 -0.280237
v 0.109101 0.093184 -0.181274
v 0.034603 0.097217 -0.162300
v -0.061360 0.090167 -0.195465
v -0.107136 0.077299 -0.256005
v -0.111455 0.056157 -0.355469
v -0.071093 0.042528 -0.419588
v -0.221806 -0.126536 -0.278808
v -0.203732 -0.122267 -0.258721
v -0.204671 -0.117671 -0.237098
v -0.214622 -0.114873 -0.223937
v -0.229872 -0.113440 -0.217195
v -0.263761 -0.116625 -0.232179
v -0.256346 -0.114873 -0.223937
v -0.265136 -0.123353 -0.263833
v -0.268423 -0.121122 -0.253335
v -0.249162 -0.126536 -0.278808
v -0.227116 -0.149941 -0.388916
v -0.208785 -0.147365 -0.376797
v -0.202306 -0.142966 -0.356103
v -0.210556 -0.138698 -0.336022
v -0.224421 -0.136749 -0.326856
v -0.246547 -0.136749 -0.326856
v -0.263761 -0.139639 -0.340451
v -0.268423 -0.144136 -0.361608
v -0.254079 -0.148979 -0.384393
v -0.232668 -0.104110 -0.173301
v -0.208785 -0.101337 -0.160251
v -0.203732 -0.099253 -0.150448
v -0.204671 -0.094657 -0.128825
v -0.214622 -0.091859 -0.115665
v -0.229872 -0.090426 -0.108922
v -0.246547 -0.090721 -0.110310
v -0.263761 -0.093611 -0.123906
v -0.268423 -0.098108 -0.145062
v -0.254079 -0.102951 -0.167848
v -0.249162 -0.083637 -0.226055
v -0.256346 -0.084557 -0.230381
v -0.263761 -0.086309 -0.238623
v -0.268423 -0.090806 -0.259779
v -0.265136 -0.093037 -0.270277
v -0.251679 -0.095956 -0.284010
v -0.249162 -0.096220 -0.285252
v -0.221806 -0.096220 -0.285252
v -0.210556 -0.094490 -0.277113
v -0.203732 -0.091950 -0.265165
v -0.203732 -0.087907 -0.246142
v -0.204671 -0.087354 -0.243542
v -0.214622 -0.084557 -0.230381
v -0.221806 -0.083637 -0.226055
v -0.229872 -0.083124 -0.223639
v -0.246547 -0.106433 -0.333300
v -0.258462 -0.107958 -0.340475
v -0.263761 -0.109323 -0.346895
v -0.268423 -0.113820 -0.368052
v -0.260412 -0.117504 -0.385386
v -0.254079 -0.118663 -0.390837
v -0.224421 -0.119453 -0.394552
v -0.227116 -0.119624 -0.395360
v -0.208785 -0.117048 -0.383241
v -0.202306 -0.112650 -0.362547
v -0.203732 -0.110921 -0.354414
v -0.210556 -0.108381 -0.342466
v -0.227116 -0.106261 -0.332492
v -0.224421 -0.106433 -0.333300
v -0.246547 -0.060405 -0.116754
v -0.258462 -0.061930 -0.123930
v -0.263761 -0.063295 -0.130350
v -0.268423 -0.067792 -0.151506
v -0.266297 -0.069489 -0.159492
v -0.254079 -0.072635 -0.174292
v -0.229872 -0.073720 -0.179395
v -0.232668 -0.073794 -0.179745
v -0.208785 -0.071020 -0.166695
v -0.203732 -0.068936 -0.156892
v -0.203732 -0.064893 -0.137869
v -0.204671 -0.064340 -0.135269
v -0.214622 -0.061543 -0.122108
v -0.232668 -0.060035 -0.115016
v -0.229872 -0.060110 -0.115366
v -0.190157 -0.080820 -0.276226
v -0.191368 -0.075071 -0.244999
v -0.281341 -0.073875 -0.243183
v -0.191641 -0.082002 -0.282247
v -0.279846 -0.072293 -0.236513
v -0.204379 -0.071843 -0.226318
v -0.216968 -0.070074 -0.217996
v -0.231672 -0.069278 -0.214251
v -0.254000 -0.070074 -0.217996
v -0.266589 -0.071843 -0.226318
v -0.201739 -0.084765 -0.287114
v -0.220508 -0.087403 -0.299523
v -0.235484 -0.087937 -0.302034
v -0.257408 -0.086750 -0.296451
v -0.194286 -0.073561 -0.237896
v -0.203559 -0.070955 -0.225632
v -0.231571 -0.068322 -0.213247
v -0.239397 -0.068322 -0.213247
v -0.220114 -0.086925 -0.300766
v -0.235484 -0.087473 -0.303344
v -0.243281 -0.087335 -0.302695
v -0.188410 -0.076094 -0.252425
v -0.193140 -0.072921 -0.237442
v -0.239506 -0.067536 -0.212106
v -0.268297 -0.070242 -0.224836
v -0.269232 -0.069722 -0.223950
v -0.211698 -0.085895 -0.300041
v -0.243727 -0.087037 -0.305413
v -0.259270 -0.085895 -0.300041
v -0.280969 -0.080682 -0.275475
v -0.279600 -0.098085 -0.353272
v -0.282558 -0.099108 -0.360699
v -0.197357 -0.094511 -0.339015
v -0.191368 -0.098085 -0.353272
v -0.280827 -0.097487 -0.353015
v -0.189810 -0.096658 -0.350506
v -0.227687 -0.110349 -0.410968
v -0.231579 -0.110215 -0.412690
v -0.235484 -0.110487 -0.411617
v -0.257985 -0.109269 -0.405886
v -0.261351 -0.108648 -0.405316
v -0.224157 -0.092560 -0.323784
v -0.260657 -0.093861 -0.329906
v -0.266589 -0.094857 -0.334591
v -0.269229 -0.107779 -0.395387
v -0.257408 -0.109764 -0.404723
v -0.227887 -0.110816 -0.409675
v -0.220508 -0.110417 -0.407795
v -0.192501 -0.098867 -0.353460
v -0.272579 -0.095190 -0.339651
v -0.261320 -0.092947 -0.329096
v -0.194286 -0.096575 -0.346169
v -0.193140 -0.095935 -0.345714
v -0.196271 -0.094027 -0.338297
v -0.188268 -0.055110 -0.153534
v -0.272579 -0.049162 -0.123106
v -0.267409 -0.047941 -0.117360
v -0.231571 -0.045308 -0.104974
v -0.223858 -0.045583 -0.106268
v -0.199342 -0.050019 -0.123644
v -0.192501 -0.052839 -0.136915
v -0.243081 -0.064788 -0.193129
v -0.269229 -0.061751 -0.178841
v -0.281842 -0.056423 -0.159825
v -0.220114 -0.063911 -0.192494
v -0.227687 -0.064321 -0.194422
v -0.243281 -0.064321 -0.194422
v -0.277196 -0.059061 -0.166185
v -0.219686 -0.063642 -0.193788
v -0.271082 -0.060860 -0.180698
v -0.288320 -0.096301 -0.367463
v -0.288207 -0.096458 -0.367430
v -0.263052 -0.107569 -0.408207
v -0.279813 -0.103783 -0.390398
v -0.189016 -0.101529 -0.392061
v -0.199699 -0.104383 -0.405487
v -0.264383 -0.105497 -0.410729
v -0.277179 -0.103048 -0.399207
v -0.281952 -0.101529 -0.392061
v -0.222297 -0.105629 -0.418718
v -0.231048 -0.105932 -0.420146
v -0.239920 -0.105932 -0.420146
v -0.184085 -0.096853 -0.385385
v -0.187690 -0.098562 -0.393425
v -0.198678 -0.101497 -0.407234
v -0.205761 -0.102644 -0.412626
v -0.222144 -0.104138 -0.419655
v -0.239972 -0.104445 -0.421100
v -0.248825 -0.104138 -0.419655
v -0.265207 -0.102644 -0.412626
v -0.287305 -0.078681 -0.282953
v -0.282840 -0.073499 -0.243302
v -0.288743 -0.075346 -0.274885
v -0.287305 -0.055667 -0.174680
v -0.288842 -0.051453 -0.162118
v -0.183663 -0.068549 -0.235288
v -0.188128 -0.079943 -0.273619
v -0.182225 -0.068784 -0.244016
v -0.183663 -0.091563 -0.343561
v -0.182126 -0.092823 -0.356751
v -0.288469 -0.046935 -0.142588
v -0.183369 -0.048465 -0.142411
v -0.196883 -0.047453 -0.120802
v -0.192465 -0.048859 -0.127417
v -0.231322 -0.042324 -0.101254
v -0.223111 -0.042609 -0.102594
v -0.189996 -0.046497 -0.126553
v -0.184467 -0.049845 -0.142305
v -0.287600 -0.048465 -0.142411
v -0.277179 -0.043525 -0.119174
v -0.239847 -0.039325 -0.099413
v -0.231121 -0.039325 -0.099413
v -0.214260 -0.040213 -0.103589
v -0.199699 -0.042191 -0.112895
v -0.189016 -0.045044 -0.126320
v -0.282727 -0.043458 -0.126229
v -0.277875 -0.041914 -0.118964
v -0.271866 -0.040557 -0.112579
v -0.286883 -0.043488 -0.134320
v -0.283278 -0.041779 -0.126281
v -0.213655 -0.036810 -0.102901
v -0.205761 -0.037698 -0.107080
v -0.198678 -0.038844 -0.112472
v 0.353138 -0.102901 -0.417082
v 0.353348 -0.102874 -0.416923
v 0.354597 -0.036424 -0.104332
v 0.354436 -0.036387 -0.104126
v 0.256244 -0.036121 -0.102905
v 0.256034 -0.036160 -0.103061
v 0.336137 -0.092142 -0.116996
v 0.336137 -0.060093 -0.123808
v 0.327059 -0.058326 -0.115491
v 0.301400 -0.056925 -0.108904
v 0.301400 -0.088974 -0.102091
v 0.282896 -0.058246 -0.115117
v 0.269645 -0.093288 -0.122385
v 0.268965 -0.061512 -0.130483
v 0.269645 -0.061239 -0.129197
v 0.265385 -0.144623 -0.363898
v 0.265385 -0.112574 -0.370710
v 0.268249 -0.114563 -0.380065
v 0.277702 -0.149355 -0.386159
v 0.294909 -0.151291 -0.395267
v 0.294268 -0.119207 -0.401915
v 0.294909 -0.119242 -0.402080
v 0.326486 -0.118146 -0.396925
v 0.320698 -0.150846 -0.393177
v 0.320698 -0.118798 -0.399989
v 0.342381 -0.145949 -0.370138
v 0.340417 -0.114880 -0.381560
v 0.342381 -0.113901 -0.376950
v 0.350429 -0.112784 -0.406974
v 0.355065 -0.104292 -0.413525
v 0.355302 -0.104104 -0.412939
v 0.354394 -0.106452 -0.412582
v 0.353759 -0.106789 -0.413597
v 0.349438 -0.113452 -0.408289
v 0.351849 -0.110648 -0.411099
v 0.343491 -0.116879 -0.402382
v 0.346424 -0.115577 -0.405530
v 0.346183 -0.115638 -0.405772
v 0.353021 -0.103913 -0.416721
v 0.353288 -0.103877 -0.416516
v 0.351244 -0.109194 -0.413981
v 0.350280 -0.109176 -0.414618
v 0.351726 -0.111419 -0.408238
v 0.350356 -0.110959 -0.412560
v 0.349486 -0.110923 -0.413171
v 0.348841 -0.113634 -0.408916
v 0.320595 -0.118298 -0.402629
v 0.291917 -0.113249 -0.412336
v 0.295818 -0.111467 -0.414260
v 0.351750 -0.106806 -0.381748
v 0.348887 -0.110405 -0.386435
v 0.344857 -0.112634 -0.376433
v 0.351250 -0.106479 -0.371024
v 0.349705 -0.108263 -0.370825
v 0.255267 -0.107781 -0.410030
v 0.257384 -0.105039 -0.416805
v 0.260667 -0.108904 -0.415313
v 0.258138 -0.109194 -0.413981
v 0.261192 -0.113712 -0.409509
v 0.261312 -0.110623 -0.413895
v 0.263704 -0.115702 -0.406244
v 0.263448 -0.115679 -0.406010
v 0.254080 -0.104104 -0.412939
v 0.254743 -0.106248 -0.412051
v 0.254549 -0.106023 -0.411510
v 0.254457 -0.104380 -0.413811
v 0.254610 -0.104463 -0.414092
v 0.255282 -0.106633 -0.413099
v 0.255623 -0.106789 -0.413597
v 0.256822 -0.105002 -0.416459
v 0.256872 -0.108985 -0.412819
v 0.256509 -0.108855 -0.412387
v 0.255430 -0.108050 -0.410519
v 0.256296 -0.109580 -0.408988
v 0.260235 -0.113556 -0.408606
v 0.343670 -0.054892 -0.110835
v 0.351408 -0.038077 -0.102011
v 0.350796 -0.037967 -0.101792
v 0.349771 -0.042693 -0.102381
v 0.350280 -0.042855 -0.102603
v 0.351693 -0.043243 -0.103524
v 0.349026 -0.044870 -0.102996
v 0.350356 -0.045321 -0.103759
v 0.350763 -0.045430 -0.104080
v 0.343125 -0.054793 -0.110290
v 0.345678 -0.052223 -0.107598
v 0.345934 -0.052298 -0.107822
v 0.336891 -0.058131 -0.115841
v 0.340522 -0.056808 -0.113395
v 0.340760 -0.056830 -0.113644
v 0.350429 -0.049260 -0.108119
v 0.354247 -0.037442 -0.103962
v 0.353791 -0.037344 -0.103469
v 0.352116 -0.043337 -0.103907
v 0.350697 -0.047574 -0.105856
v 0.351849 -0.045631 -0.105219
v 0.351726 -0.047499 -0.107519
v 0.336769 -0.058094 -0.115726
v 0.335150 -0.058712 -0.117566
v 0.258325 -0.053295 -0.128613
v 0.256110 -0.051846 -0.134482
v 0.264524 -0.061546 -0.136080
v 0.288787 -0.056065 -0.109845
v 0.317465 -0.047504 -0.103031
v 0.313563 -0.045093 -0.101998
v 0.274232 -0.058712 -0.117566
v 0.269347 -0.056707 -0.112919
v 0.272613 -0.058094 -0.115726
v 0.254080 -0.038904 -0.106200
v 0.253902 -0.038961 -0.106830
v 0.255267 -0.043447 -0.107361
v 0.255430 -0.043494 -0.106806
v 0.255639 -0.043519 -0.106266
v 0.256296 -0.045514 -0.107582
v 0.256693 -0.045631 -0.106579
v 0.266445 -0.054740 -0.110118
v 0.269595 -0.056628 -0.112692
v 0.256361 -0.037192 -0.102822
v 0.256093 -0.037243 -0.103025
v 0.258138 -0.043131 -0.103177
v 0.258610 -0.043001 -0.102869
v 0.259684 -0.047393 -0.104817
v 0.258618 -0.045430 -0.104080
v 0.260437 -0.047164 -0.104245
v 0.259452 -0.045191 -0.103469
v 0.261244 -0.046852 -0.103784
v 0.260356 -0.044870 -0.102996
v 0.261664 -0.046666 -0.103598
v 0.260828 -0.044680 -0.102816
v 0.260860 -0.049172 -0.105702
v 0.261192 -0.049077 -0.105425
v -0.172092 -0.018831 -0.394745
v -0.170288 -0.015133 -0.395838
v -0.167377 -0.012233 -0.396951
v -0.163657 -0.010428 -0.397970
v -0.171441 -0.015142 -0.420147
v -0.186165 -0.019075 -0.438650
v -0.264735 -0.021801 -0.451475
v -0.299527 -0.015142 -0.420147
v -0.168469 -0.013537 -0.408576
v -0.187496 -0.019592 -0.437062
v -0.207022 -0.022245 -0.449541
v -0.229633 -0.023435 -0.455141
v -0.263946 -0.022245 -0.449541
v -0.170176 -0.014531 -0.407765
v -0.241054 -0.025230 -0.451291
v -0.262578 -0.024096 -0.445959
v -0.208933 -0.025456 -0.444404
v -0.240942 -0.026567 -0.449629
v -0.262035 -0.025456 -0.444404
v -0.271636 -0.024376 -0.439322
v -0.287644 -0.021312 -0.424908
v -0.178294 -0.021114 -0.415086
v -0.191442 -0.024626 -0.431609
v -0.271051 -0.025998 -0.438062
v -0.286800 -0.022983 -0.423880
v -0.174698 -0.020970 -0.404809
v -0.178962 -0.022991 -0.414317
v -0.191956 -0.026462 -0.430648
v -0.200333 -0.027818 -0.437025
v -0.209668 -0.028868 -0.441966
v -0.240791 -0.029948 -0.447046
v -0.251261 -0.029585 -0.445338
v -0.298876 0.031596 -0.157505
v -0.300680 0.035419 -0.158010
v -0.302014 0.037082 -0.158136
v -0.307311 0.040584 -0.157977
v -0.265568 0.052851 -0.102720
v -0.292949 0.047391 -0.125951
v -0.217608 0.052769 -0.100651
v -0.186165 0.049231 -0.117296
v -0.178019 0.047391 -0.125951
v -0.163657 0.040584 -0.157977
v -0.291398 0.046322 -0.126958
v -0.283473 0.048112 -0.118536
v -0.252878 0.051555 -0.102341
v -0.218090 0.051555 -0.102341
v -0.187496 0.048112 -0.118536
v -0.179570 0.046322 -0.126958
v -0.289973 0.044976 -0.127805
v -0.282250 0.046721 -0.119598
v -0.252435 0.050075 -0.103816
v -0.197718 0.048177 -0.112747
v -0.188718 0.046721 -0.119598
v -0.288711 0.043388 -0.128472
v -0.287644 0.041598 -0.128941
v -0.280251 0.043268 -0.121085
v -0.262035 0.045742 -0.109444
v -0.251710 0.046479 -0.105977
v -0.240942 0.046853 -0.104219
v -0.199332 0.044662 -0.114526
v -0.190718 0.043268 -0.121085
v -0.170288 0.035419 -0.158010
v -0.286800 0.039653 -0.129199
v -0.279526 0.041296 -0.121470
v -0.271051 0.042667 -0.115018
v -0.261605 0.043730 -0.110018
v -0.296270 0.033735 -0.147440
v -0.286201 0.037604 -0.129240
v -0.279012 0.039227 -0.121602
v -0.270635 0.040583 -0.115225
v -0.200333 0.040583 -0.115225
v -0.191956 0.039227 -0.121602
v 0.238260 -0.019456 -0.436422
v 0.242693 -0.022337 -0.437682
v 0.243897 -0.023826 -0.436738
v 0.245527 -0.027414 -0.435126
v 0.242105 -0.022680 -0.431342
v 0.243912 -0.026381 -0.430263
v 0.253774 -0.023325 -0.449135
v 0.253216 -0.022566 -0.451052
v 0.251998 -0.025511 -0.444662
v 0.249518 -0.025195 -0.443175
v 0.248724 -0.023805 -0.444589
v 0.247783 -0.022690 -0.446149
v 0.250593 0.041413 -0.111321
v 0.245527 0.040179 -0.117123
v 0.244524 0.039676 -0.119493
v 0.243912 0.039146 -0.121986
v 0.251998 0.045797 -0.109186
v 0.252829 0.041697 -0.109981
v 0.242105 0.042966 -0.122506
v 0.244850 0.042203 -0.117201
v 0.242693 0.045857 -0.116854
v 0.239658 0.048678 -0.115873
v 0.246282 0.042689 -0.114915
v 0.244323 0.046410 -0.114251
v 0.241568 0.049326 -0.112824
v 0.239979 0.050385 -0.111868
v 0.242553 0.051011 -0.108920
v 0.246350 0.046904 -0.111929
v 0.247306 0.045088 -0.112521
v 0.358788 -0.028648 -0.440928
v 0.364858 -0.026911 -0.432757
v 0.365470 -0.026381 -0.430263
v 0.356773 -0.022136 -0.453054
v 0.356166 -0.022566 -0.451052
v 0.363815 -0.021391 -0.449544
v 0.360658 -0.023805 -0.444589
v 0.354365 -0.027339 -0.444372
v 0.354131 -0.029141 -0.443250
v 0.351867 -0.025883 -0.446415
v 0.351700 -0.027472 -0.444997
v 0.368612 -0.021106 -0.431893
v 0.366220 -0.024453 -0.430794
v 0.366689 -0.022337 -0.437682
v 0.368115 -0.021104 -0.438687
v 0.369723 -0.020159 -0.439725
v 0.367814 -0.020807 -0.442774
v 0.369403 -0.020229 -0.444078
v 0.364163 -0.022235 -0.444007
v 0.363032 -0.023384 -0.442606
v 0.369723 0.048678 -0.115873
v 0.366689 0.045857 -0.116854
v 0.365485 0.044112 -0.117110
v 0.363965 0.044628 -0.114684
v 0.368612 0.044627 -0.122643
v 0.366220 0.041123 -0.122285
v 0.352079 0.048064 -0.106471
v 0.351867 0.046169 -0.107433
v 0.351700 0.044142 -0.108082
v 0.354365 0.044009 -0.108708
v 0.357383 0.045797 -0.109186
v 0.357997 0.047664 -0.108352
v 0.359543 0.050795 -0.105915
v 0.360435 0.051977 -0.104376
vn -0.2055 -0.4384 -0.8750
vn -0.0826 0.2072 0.9748
vn 0.0456 0.2588 0.9648
vn -0.4017 -0.9158 -0.0000
vn -0.7890 0.6141 0.0155
vn 0.9997 0.0001 -0.0248
vn -0.9854 0.1656 -0.0390
vn 0.8407 -0.0619 -0.5379
vn 0.8929 0.0936 0.4404
vn 0.0093 -0.7334 -0.6797
vn 0.2247 0.5828 0.7809
vn 0.1833 0.9422 -0.2805
vn -0.4887 0.1808 0.8535
vn -0.3331 -0.1960 -0.9223
vn -0.0416 0.8749 0.4826
vn 0.4799 -0.8397 -0.2542
vn 0.7507 0.1374 0.6462
vn 0.5600 0.1723 0.8104
vn 0.7986 0.2364 0.5535
vn -0.9991 0.0088 0.0415
vn 0.0848 0.2116 0.9737
vn -0.9991 -0.0088 -0.0415
vn 0.5551 0.7269 -0.4043
vn -0.9814 -0.0916 0.1689
vn -0.1123 0.8670 0.4855
vn -0.3331 0.1889 0.9238
vn -1.0000 -0.0000 -0.0000
vn -0.0000 -0.9781 0.2079
vn 0.1690 0.2049 0.9641
vn -0.0000 -0.9987 0.0515
vn -0.8593 -0.0858 -0.5043
vn 0.0021 0.9989 0.0467
vn 0.7987 0.0457 -0.6000
vn 0.0592 0.9435 -0.3260
vn 0.4119 -0.1895 -0.8913
vn -0.7470 -0.4576 -0.4822
vn -0.8787 0.4669 -0.0991
vn -0.6380 0.1927 0.7456
vn -0.2392 0.9270 -0.2890
vn 0.1882 0.5001 -0.8452
vn -0.5863 -0.7177 0.3758
vn -0.6931 -0.1428 -0.7065
vn 0.0298 -0.0649 -0.9974
vn -0.1625 0.3337 0.9286
vn -0.8051 -0.1457 -0.5750
vn -0.9991 0.0017 0.0430
vn 0.2508 0.2147 0.9439
vn 0.7366 0.0612 -0.6736
vn -0.5618 0.4490 -0.6948
vn -0.0039 0.6496 -0.7602
vn -0.6919 0.1501 0.7062
vn -0.3281 0.6458 -0.6894
vn -0.2802 -0.2380 0.9299
vn -0.8066 -0.0043 -0.5910
vn 0.1876 0.8659 -0.4636
vn 0.2106 -0.9758 -0.0589
vn 0.2040 -0.4442 -0.8724
vn 0.3331 0.1960 0.9223
vn -0.0000 0.6593 0.7518
vn -0.4009 -0.1283 -0.9071
vn -0.2519 0.2245 0.9413
vn 0.8067 -0.0005 -0.5910
vn -0.5241 0.6615 -0.5363
vn -0.9856 0.0557 0.1596
vn -0.5250 0.7537 -0.3954
vn 0.5052 0.5004 0.7031
vn 0.3996 -0.0033 -0.9167
vn 0.7598 0.2981 0.5777
vn 0.2580 -0.7142 -0.6506
vn -0.4118 -0.1725 -0.8948
vn -0.8639 0.4928 -0.1046
vn 0.2388 0.5833 -0.7764
vn 0.2081 0.6744 -0.7084
vn 0.1350 0.6473 -0.7502
vn 0.2292 0.2146 -0.9494
vn -0.9990 0.0042 -0.0443
vn 0.4885 0.1809 0.8536
vn 0.4228 -0.3514 -0.8354
vn -0.0000 0.9781 -0.2079
vn 0.0848 -0.1978 -0.9766
vn 0.4877 -0.1815 -0.8539
vn -0.0066 0.5473 -0.8369
vn -0.2113 -0.3551 -0.9107
vn -0.2112 -0.3549 -0.9107
vn -0.0081 0.9707 -0.2401
vn -0.9997 -0.0005 -0.0246
vn -0.8040 0.1236 0.5816
vn 0.9776 -0.0438 -0.2061
vn -0.9275 -0.0495 -0.3705
vn -0.6891 -0.5124 0.5124
vn 0.2520 0.2012 0.9466
vn -0.8321 0.0208 -0.5542
vn -0.5238 -0.0165 -0.8517
vn -0.0125 -0.1367 -0.9905
vn -0.2672 -0.8487 -0.4563
vn 0.5788 0.7571 0.3029
vn 0.0176 0.9802 -0.1974
vn -0.8927 -0.1134 -0.4361
vn 0.7921 -0.3463 -0.5027
vn 0.1397 0.9644 0.2245
vn 0.0651 0.8871 -0.4570
vn -0.0826 0.9966 -0.0000
vn -0.0466 0.2470 0.9679
vn -0.7507 -0.1374 -0.6462
vn -0.4876 0.1981 0.8503
vn -0.1910 0.8555 -0.4812
vn -0.2094 -0.9761 -0.0579
vn -0.7797 0.1433 -0.6096
vn -0.9883 0.1511 -0.0218
vn -0.8733 0.4856 -0.0390
vn -0.0115 0.9510 -0.3090
vn 0.1231 -0.5407 0.8321
vn 0.7448 -0.5400 0.3920
vn 0.2077 0.9387 0.2751
vn 0.0009 -0.9708 0.2397
vn 0.7361 0.1784 0.6530
vn -0.5745 0.7911 -0.2099
vn 0.9866 0.1597 -0.0320
vn 0.7124 0.6007 -0.3629
vn 0.1885 0.8700 0.4555
vn -0.8040 -0.1236 -0.5816
vn 0.0040 0.9785 -0.2062
vn -0.5156 0.8554 0.0495
vn -0.4119 0.1895 0.8913
vn 0.5395 0.3239 0.7771
vn -0.6117 0.6631 -0.4315
vn 0.4759 0.1852 0.8598
vn -0.7357 0.6773 -0.0000
vn -0.1562 0.0750 -0.9849
vn -0.0007 -0.7071 0.7071
vn -0.3327 -0.2296 -0.9147
vn -0.0000 0.2079 0.9781
vn 0.9014 -0.4297 -0.0527
vn -0.1479 0.9860 -0.0770
vn 0.9562 -0.0609 -0.2864
vn -0.4960 0.5940 -0.6334
vn -0.0127 0.3511 0.9362
vn -0.3331 0.1960 0.9223
vn 0.7507 -0.1374 -0.6462
vn -0.7818 0.2595 0.5670
vn 0.9989 0.0260 0.0379
vn 0.5429 -0.7606 0.3558
vn 0.6971 -0.5452 0.4656
vn 0.6919 -0.1501 -0.7062
vn 0.5598 -0.1466 -0.8156
vn 0.6280 -0.1337 -0.7667
vn 0.8509 0.1479 0.5042
vn -0.6362 -0.4448 -0.6304
vn 0.8515 -0.1090 -0.5129
vn 0.9776 0.0438 0.2061
vn 0.3331 0.1843 0.9247
vn 0.2395 -0.9563 -0.1679
vn 0.8791 0.1292 0.4589
vn 0.9562 0.0609 0.2864
vn 0.6142 -0.0757 -0.7855
vn -0.0000 -0.0254 0.9997
vn 0.8294 0.0337 -0.5576
vn 0.7058 -0.6919 0.1522
vn 0.2114 -0.3559 -0.9103
vn 0.2106 -0.3541 -0.9112
vn -0.7397 -0.5443 0.3957
vn 0.3152 -0.3009 0.9000
vn -0.6038 0.7964 -0.0334
vn 0.9852 0.0086 0.1713
vn -0.0000 -0.2079 -0.9781
vn 0.9758 -0.0134 -0.2183
vn -0.1895 -0.8932 -0.4079
vn -0.7794 -0.1022 0.6182
vn 0.7891 0.6142 -0.0000
vn 0.5944 0.7821 -0.1873
vn 0.4759 -0.8795 -0.0000
vn 0.2518 -0.1621 -0.9541
vn -0.0000 -0.0000 1.0000
vn -0.1690 0.2005 0.9650
vn 0.6773 -0.7357 -0.0000
vn -0.9919 0.0264 0.1242
vn 0.9277 -0.0946 -0.3610
vn -0.9562 0.0609 0.2864
vn 0.5451 -0.0927 -0.8332
vn -0.8509 -0.0704 -0.5206
vn -0.5599 0.1853 0.8076
vn -0.6280 -0.1851 -0.7558
vn -0.4877 -0.1815 -0.8539
vn 0.9919 0.0264 0.1242
vn 0.8040 0.1236 0.5816
vn 0.2520 -0.2012 -0.9466
vn 0.8515 -0.1137 -0.5118
vn -0.1690 -0.1942 -0.9663
vn 0.9919 -0.0264 -0.1242
vn -0.9562 -0.0609 -0.2864
vn 0.9279 -0.0775 -0.3647
vn 0.8040 -0.1236 -0.5816
vn -0.0000 -0.1949 -0.9808
vn 0.0848 -0.2419 -0.9666
vn -0.8515 -0.1090 -0.5128
vn -0.2510 0.1801 0.9511
vn -0.5600 -0.1723 -0.8104
vn -0.7498 0.1837 0.6356
vn -0.8929 0.0936 0.4404
vn -0.4119 -0.1895 -0.8913
vn -0.6574 0.6098 -0.4426
vn 0.4803 0.8520 -0.2083
vn 0.2921 0.9058 0.3070
vn -0.0000 -1.0000 -0.0000
vn 0.0039 0.9824 -0.1870
vn 0.4756 0.8618 0.1764
vn -0.9997 -0.0050 -0.0236
vn 0.9694 -0.2455 -0.0000
vn 0.7758 0.1461 -0.6139
vn -0.1929 0.8570 0.4779
vn -0.5634 0.4983 0.6590
vn -0.4002 0.6213 -0.6737
vn 0.3813 0.7222 0.5771
vn 0.2924 0.9562 -0.0143
vn -0.0103 0.1086 -0.9940
vn 0.6859 0.4798 0.5471
vn 0.0262 0.5683 -0.8224
vn 0.0178 -0.0602 -0.9980
vn 0.3287 0.8402 0.4313
vn -0.9785 -0.0373 -0.2029
vn -0.6184 0.7024 0.3524
vn -0.4771 0.8587 -0.1873
vn -0.8049 0.3095 0.5063
vn -0.9279 -0.0775 -0.3647
vn 0.5008 0.8350 -0.2280
vn 0.6833 0.7142 -0.1517
vn -0.0261 0.8807 0.4729
vn -0.0059 0.0683 0.9976
vn 0.2104 0.9764 -0.0478
vn 0.0006 0.3985 -0.9172
vn 0.2558 0.5214 -0.8141
vn -0.8246 -0.0038 0.5657
vn -0.0579 0.8792 0.4730
vn -0.9279 0.0775 0.3647
vn 0.9029 -0.0090 0.4297
vn 0.6919 0.1631 0.7033
vn -0.1712 -0.2077 -0.9631
vn 0.4949 0.3516 -0.7946
vn -0.5561 -0.4666 -0.6877
vn 0.9961 0.0871 0.0170
vn 0.2355 -0.8083 -0.5396
vn -0.0057 0.9477 -0.3190
vn 0.4063 0.8394 -0.3609
vn -0.1415 0.6750 -0.7242
vn -0.1297 -0.4975 0.8577
vn 0.6413 -0.3881 -0.6619
vn 0.9029 0.4294 0.0201
vn -0.8515 0.1075 0.5132
vn 0.6771 0.7356 0.0203
vn -0.5141 0.6195 -0.5932
vn -0.7533 -0.6556 0.0519
vn -0.3375 0.7026 0.6264
vn 0.4965 0.8586 -0.1277
vn -0.8523 -0.2414 -0.4640
vn -0.6769 -0.7353 0.0326
vn 0.9279 0.0750 0.3653
vn -0.5852 -0.5311 -0.6128
vn 0.7984 0.5904 -0.1186
vn -0.0000 1.0000 -0.0000
vn -0.9694 -0.2455 -0.0000
vn -0.5257 -0.8042 -0.2773
vn -0.5660 0.7115 0.4164
vn -0.7343 0.2023 0.6480
vn 1.0000 -0.0000 -0.0000
vn 0.9998 0.0062 -0.0190
vn 0.0575 0.3477 -0.9358
vn -0.5869 0.8085 0.0444
vn -0.2488 -0.0717 -0.9659
vn -0.8039 0.1129 0.5839
vn -0.0031 0.8622 0.5066
vn -0.2620 0.9409 0.2148
vn -0.8264 0.4376 0.3544
s 0
f 148//1 151//1 137//1 138//1 409//1 410//1 471//1 465//1 462//1 461//1 460//1 176//1 438//1 437//1 436//1 433//1 434//1 517//1 516//1 145//1
f 1452//2 1450//2 1454//2 1455//2
f 430//3 429//3 421//3 414//3 413//3 489//3 474//3 405//3 406//3 508//3 161//3 160//3 357//3 349//3 356//3 359//3 360//3 178//3 180//3 179//3 422//3 428//3 427//3
f 1213//4 1214//4 1215//4 1216//4 316//4 325//4 324//4 323//4 322//4 321//4 320//4 1210//4 1211//4 1212//4
f 17//5 20//5 19//5 18//5 16//5
f 195//6 836//6 861//6 860//6 197//6 196//6
f 1526//7 1514//7 1511//7 1524//7 1523//7 1522//7 1434//7 1433//7 1686//7 1685//7 1684//7 1687//7 1688//7 1675//7 1665//7 1664//7 1461//7 1460//7 1462//7 1463//7 1465//7 1464//7 1459//7 1473//7 1480//7 1481//7 1483//7 1484//7 1521//7 1527//7 1525//7
f 193//8 832//8 831//8 1033//8 1004//8 1034//8 1032//8 1035//8 1046//8 1044//8 1045//8 1042//8 1043//8 1040//8 1041//8 1038//8 1039//8 1037//8 813//8 812//8 816//8 817//8 820//8 819//8 827//8 826//8 825//8 824//8 822//8 821//8
f 744//9 745//9 718//9 716//9
f 845//10 857//10 289//10 278//10
f 411//11 412//11 505//11 490//11 491//11 483//11 487//11 475//11 474//11 489//11 413//11 414//11 421//11 429//11
f 184//12 1445//12 1444//12 1532//12 1546//12 1537//12 1547//12 1536//12 1538//12 1533//12 1442//12
f 702//13 700//13 705//13 704//13
f 216//14 1234//14 1225//14 200//14
f 1672//15 1673//15 1670//15 1671//15 1663//15 1669//15 1682//15 1681//15 1677//15 1678//15 1679//15 1680//15 1668//15 1666//15 1667//15 1641//15 1640//15 1645//15 1644//15 1643//15 1642//15
f 687//16 859//16 832//16 193//16 194//16 195//16 196//16 296//16 688//16
f 235//17 234//17 232//17 233//17
f 796//18 798//18 797//18 795//18
f 209//19 222//19 1228//19 1229//19 208//19
f 201//20 1232//20 1233//20 214//20
f 798//21 801//21 800//21 799//21 797//21
f 738//22 739//22 728//22 730//22
f 453//23 451//23 457//23 458//23 459//23 464//23 463//23 470//23 469//23 468//23 480//23 479//23 478//23 495//23 497//23 496//23 501//23 500//23 504//23 503//23 502//23 498//23 499//23 494//23 541//23 526//23 658//23 657//23 661//23 660//23 535//23 546//23 543//23 544//23 659//23 655//23 656//23 654//23 653//23 652//23 651//23 650//23 649//23 647//23 648//23 645//23 646//23 452//23 454//23
f 136//24 162//24 168//24 165//24 152//24 506//24 512//24 141//24 511//24 139//24 140//24 135//24
f 1271//25 1272//25 1318//25 1319//25 1326//25 1327//25 1320//25 1321//25 1269//25 1270//25
f 735//26 736//26 731//26 733//26 734//26
f 1224//27 2//27 1//27 319//27
f 709//28 706//28 703//28 236//28 235//28 233//28 231//28 711//28
f 1284//29 1253//29 1245//29 1286//29
f 680//30 681//30 679//30 682//30 684//30 685//30 686//30 687//30 688//30 296//30 297//30
f 192//31 253//31 258//31 263//31 264//31 265//31 250//31 251//31 525//31 537//31 584//31 583//31 579//31 580//31 582//31 581//31 531//31 267//31
f 294//32 293//32 310//32 309//32 295//32
f 1549//33 1548//33 1550//33 1551//33 1555//33 1554//33 1552//33 1553//33 1545//33 1543//33 1542//33 1540//33 1539//33 1648//33 1647//33 1653//33 1656//33 1657//33 1661//33 1662//33 1650//33 1651//33 1646//33 1435//33 1436//33
f 941//34 929//34 928//34 927//34 931//34 932//34 939//34 940//34 938//34 942//34
f 200//35 1225//35 1226//35 203//35
f 138//36 137//36 151//36 148//36 145//36 143//36 144//36 142//36 150//36 146//36 147//36 136//36 135//36 140//36 139//36
f 695//37 697//37 699//37 701//37 335//37 336//37
f 182//38 426//38 425//38 428//38 422//38 179//38 180//38 178//38 360//38 358//38 385//38 181//38 183//38
f 482//39 481//39 478//39 479//39 480//39 468//39 467//39 466//39 473//39 472//39 486//39 485//39 484//39
f 1279//40 1280//40 1351//40 1350//40 1349//40 1291//40
f 364//41 167//41 164//41 163//41 166//41 162//41 136//41 147//41 146//41 150//41 149//41 514//41 521//41 522//41 520//41 523//41 518//41 519//41 363//41 355//41 368//41 366//41 367//41 348//41 362//41 379//41 378//41 376//41 375//41 377//41 373//41 369//41 396//41 397//41 352//41 354//41 353//41 270//41 402//41 290//41 266//41 269//41 268//41 271//41 350//41 272//41 351//41 381//41 387//41 386//41 389//41 388//41 391//41 390//41 395//41 394//41 400//41 401//41 370//41 372//41 371//41 361//41 374//41 365//41
f 838//42 839//42 852//42 847//42 850//42 854//42 846//42 853//42 837//42
f 352//43 353//43 354//43
f 1591//44 1578//44 1579//44 1592//44 1593//44 1396//44 1395//44 1389//44 1388//44 1387//44 1394//44 1393//44 1590//44
f 695//45 694//45 693//45 696//45 697//45
f 1166//46 1167//46 1145//46 1144//46 1161//46 1165//46
f 707//47 704//47 705//47 703//47 706//47 708//47
f 172//48 174//48 455//48 177//48 175//48 456//48 457//48 451//48 450//48 449//48
f 238//28 236//28 703//28 705//28 700//28 698//28 696//28 693//28 690//28 689//28 712//28 711//28 231//28 229//28 249//28 247//28 245//28 243//28 241//28
f 1290//49 1292//49 1291//49 1349//49 1356//49 1289//49
f 1512//50 1513//50 1516//50 1517//50 1515//50 1506//50 1519//50 1520//50 186//50 1518//50 1529//50 1528//50 1439//50 1440//50 1442//50 1533//50 1538//50 1536//50 1547//50 1537//50 1546//50 1561//50 1560//50 1552//50 1554//50 1555//50 1557//50 1556//50 1558//50 1559//50 1534//50 1535//50
f 1164//51 1165//51 1161//51 1147//51
f 1160//52 1157//52 1156//52 1184//52 1185//52 1177//52 1178//52 1179//52 1176//52 1194//52
f 158//53 159//53 171//53 154//53 169//53 170//53 167//53 364//53 365//53 374//53 361//53 371//53 372//53 370//53 401//53 400//53 394//53 395//53 390//53 391//53 388//53 389//53 386//53 387//53 380//53 393//53 398//53 399//53 382//53 383//53 384//53 392//53 385//53 358//53 360//53 359//53 356//53 349//53 357//53 160//53 161//53 508//53
f 190//54 273//54 274//54 275//54 191//54
f 173//55 177//55 455//55
f 173//56 455//56 174//56
f 922//57 923//57 924//57 870//57 871//57 41//57 42//57 59//57 60//57 49//57 58//57 57//57 48//57 55//57 977//57 56//57 978//57 979//57 980//57 986//57 991//57 992//57 987//57 988//57 975//57 989//57 896//57 897//57 899//57 898//57 900//57 73//57 919//57 918//57
f 734//58 733//58 718//58 745//58
f 292//59 291//59 293//59 294//59
f 1441//60 1440//60 1439//60 1438//60 1437//60
f 238//61 241//61 240//61 239//61 237//61
f 195//62 194//62 835//62 836//62
f 726//63 766//63 767//63 768//63 729//63
f 382//64 399//64 398//64 393//64 380//64 387//64 381//64 351//64 272//64 350//64 271//64 268//64 269//64 266//64 267//64 531//64 581//64 582//64 580//64 579//64 578//64 677//64 668//64 676//64 673//64 672//64 637//64 639//64 638//64 640//64 636//64 530//64 529//64 632//64 631//64 625//64 618//64 623//64 617//64 621//64 620//64 628//64 619//64 616//64 627//64 615//64 626//64 604//64 614//64 603//64 602//64 601//64 600//64 592//64 599//64 591//64 598//64 590//64 597//64 589//64 596//64 588//64 587//64 539//64 538//64 528//64 417//64 527//64 416//64 415//64 426//64 182//64 183//64 181//64 385//64 392//64 384//64 383//64
f 1146//65 1160//65 1194//65 1176//65 1174//65 1179//65 1197//65 1195//65 1199//65
f 969//66 971//66 972//66 948//66 949//66 945//66 946//66 936//66 937//66 867//66 868//66 970//66 70//66 71//66 968//66
f 1620//67 1418//67 1417//67 1424//67 1425//67 1630//67 1631//67 1626//67 1627//67 1618//67 1619//67
f 1486//68 1642//68 1643//68 1644//68 1635//68 1636//68 1638//68 1639//68 1637//68 1496//68 1497//68 1498//68 1499//68 1502//68 1501//68 1488//68 1500//68
f 685//69 341//69 1139//69 1140//69 1142//69 1143//69 683//69 686//69
f 1277//70 1276//70 1238//70 1239//70 1278//70
f 1677//71 1676//71 1674//71 1675//71 1688//71 1687//71 1684//71 1683//71 1678//71
f 1293//72 1294//72 1364//72 1363//72 1417//72 1418//72 1419//72 1412//72 1413//72 1366//72 1365//72 1306//72
f 1156//73 1154//73 1192//73 1193//73 1189//73 1182//73 1183//73 1184//73
f 723//74 721//74 758//74 757//74 756//74 754//74 755//74 759//74 761//74 762//74 767//74 766//74 726//74
f 467//75 468//75 469//75 470//75 463//75 464//75 459//75 458//75 457//75 456//75 175//75 176//75 460//75 461//75 462//75 465//75 471//75
f 1302//76 1256//76 1257//76 1304//76 1303//76
f 1131//77 1132//77 1133//77 1135//77
f 175//78 177//78 173//78 174//78 441//78 440//78 442//78 443//78 439//78 438//78 176//78
f 722//79 720//79 721//79 723//79
f 1172//17 1173//17 1149//17 1151//17
f 1260//80 1293//80 1306//80 1307//80 1259//80
f 1169//81 1170//81 1153//81 1155//81
f 770//82 753//82 752//82
f 754//83 752//83 755//83
f 756//84 757//84 747//84
f 1358//85 1357//85 1338//85 1342//85 1339//85 1337//85 1336//85 1335//85 1334//85 1308//85 1311//85 1404//85 1343//85 1361//85 1340//85 1360//85 1359//85 1341//85 1356//85 1349//85 1350//85
f 232//79 234//79 237//79 239//79 735//79 734//79 745//79 744//79 743//79 742//79 741//79 740//79 739//79 738//79 737//79 240//79 242//79 244//79 246//79 248//79 228//79 230//79
f 273//86 190//86 188//86 189//86 332//86 333//86
f 205//87 1231//87 1232//87 201//87
f 1296//88 1295//88 1261//88 1262//88
f 1246//79 1245//79 1253//79 1252//79 1251//79 1250//79 1249//79 1248//79 1247//79
f 697//20 696//20 698//20 699//20
f 1248//89 1290//89 1289//89 1288//89 1247//89
f 300//90 189//90 188//90 297//90
f 1300//91 1298//91 1263//91 1254//91
f 1633//92 1622//92 1623//92 1409//92 1415//92 1414//92 1422//92 1421//92 1430//92 1429//92 1632//92
f 1507//93 1508//93 1692//93 1691//93 1690//93 1689//93 1694//93 1693//93 1686//93 1433//93 1434//93 1522//93 1523//93 1524//93 1511//93 1514//93 1513//93 1512//93 1509//93 1510//93
f 569//94 568//94 1019//94 1020//94 1016//94 1013//94 1014//94 1012//94 1010//94 1011//94 1007//94 1008//94 1006//94 1003//94 1005//94 849//94 850//94 847//94 852//94 839//94 841//94 840//94 845//94 278//94 287//94 286//94 556//94 562//94 558//94
f 515//95 513//95 514//95 149//95 150//95 142//95 144//95 143//95 145//95 516//95 517//95 434//95 433//95 436//95 435//95 431//95 432//95
f 864//96 93//96 863//96
f 1569//97 1568//97 1574//97 1573//97 1572//97 1571//97 1567//97 1566//97 213//97 202//97 220//97 204//97 1183//97 1182//97 1189//97 1188//97 1187//97 221//97 218//97 207//97 1660//97 1659//97 1658//97 1655//97 1634//97 1641//97 1667//97 1666//97 1668//97 226//97 199//97 227//97 210//97 209//97 208//97 219//97 205//97 201//97 214//97 215//97 212//97 211//97 223//97 217//97 225//97 224//97 198//97 1598//97 1599//97 1597//97
f 1123//98 1122//98 1121//98 1124//98 1125//98
f 50//99 53//99 54//99 57//99 58//99 49//99 60//99 59//99 42//99 41//99 973//99
f 1150//100 1204//100 1202//100 1201//100 1181//100 1186//100 1191//100 1190//100
f 1111//101 998//101 1112//101 1113//101 1109//101 1110//101 1065//101 1064//101 1063//101 1062//101 1066//101 1061//101 1108//101 1079//101 894//101 895//101 890//101 874//101 873//101 956//101 957//101 959//101 964//101 954//101 955//101 1086//101 1087//101 1089//101 1088//101 1092//101 1091//101 1095//101 1094//101 1097//101 1105//101 1104//101 1098//101 999//101 1102//101 1103//101 1100//101 1101//101 1099//101 1093//101 1096//101 1090//101 1107//101 1106//101 1117//101 1115//101 1018//101 993//101 1200//101 1196//101 1195//101 1197//101 1179//101 1178//101 1175//101 1180//101 307//101 256//101 259//101 261//101 260//101 257//101 252//101 255//101 254//101 308//101 823//101 827//101 819//101 818//101 815//101 814//101 811//101 1198//101 1203//101 994//101 995//101 1047//101 1053//101 1052//101 1051//101 1049//101 1050//101 1048//101 1057//101 1056//101 1055//101 1054//101 1060//101 1058//101 1059//101 1036//101 1025//101 1001//101 1000//101 1024//101 1023//101 1017//101 1120//101 1119//101 1118//101 996//101 1116//101
f 10//102 12//102 11//102 9//102 7//102 5//102 3//102 4//102 6//102 8//102
f 937//103 877//103 878//103 876//103 891//103 881//103 865//103 96//103 98//103 97//103 102//103 100//103 99//103 67//103 68//103 69//103 61//103 970//103 868//103 867//103
f 1167//104 1168//104 1159//104 1145//104
f 1273//76 1236//76 1237//76 1275//76 1274//76
f 1299//105 1300//105 1254//105 1255//105 1301//105
f 80//106 79//106 914//106
f 914//107 79//107 78//107
f 138//108 139//108 511//108 408//108 407//108 466//108 467//108 471//108 410//108 409//108
f 1623//109 1563//109 1562//109 1587//109 1390//109 1391//109 1382//109 1406//109 1407//109 1403//109 1405//109 1409//109
f 511//110 141//110 512//110 506//110 507//110 404//110 403//110 486//110 472//110 473//110 466//110 407//110 408//110
f 526//111 541//111 494//111 499//111 498//111 502//111 503//111 493//111 492//111 420//111 419//111 605//111 606//111 607//111 608//111 593//111 609//111 594//111 610//111 595//111 611//111 612//111 613//111 622//111 629//111 624//111 630//111 633//111 635//111 634//111 669//111 641//111 670//111 671//111 662//111 664//111 663//111 666//111 675//111 674//111 665//111 667//111 643//111 644//111 642//111 540//111 573//111 574//111 571//111 570//111 575//111 576//111 577//111 572//111 585//111 586//111 524//111 778//111 777//111 785//111 786//111 760//111 764//111 763//111 769//111 768//111 767//111 762//111 761//111 759//111 755//111 752//111 753//111 770//111 771//111 751//111 748//111 749//111 750//111 259//111 256//111 307//111 1180//111 1175//111 1177//111 1185//111 1184//111 1183//111 204//111 220//111 202//111 213//111 1566//111 1565//111 1603//111 1602//111 1601//111 1600//111 1607//111 1606//111 1612//111 1611//111 1605//111 1604//111 1599//111 1598//111 198//111 224//111 225//111 217//111 223//111 211//111 212//111 215//111 216//111 200//111 203//111 206//111 222//111 209//111 210//111 227//111 199//111 226//111 1668//111 1680//111 1679//111 1678//111 1683//111 1695//111 1696//111 1660//111 207//111 218//111 221//111 1187//111 1186//111 1181//111 1201//111 1202//111 1204//111 1150//111 1154//111 1156//111 1157//111 1158//111 1155//111 1153//111 1152//111 1151//111 1149//111 1148//111 1147//111 1161//111 1144//111 1146//111 1199//111 1195//111 1196//111 1200//111 993//111 1018//111 1021//111 1022//111 566//111 567//111 565//111 532//111 533//111 534//111 564//111 563//111 678//111 551//111 550//111 549//111 536//111 535//111 660//111 661//111 657//111 658//111
f 1131//112 1135//112 1134//112 343//112 340//112 342//112 1129//112
f 710//113 714//113 713//113 338//113 339//113 337//113 707//113 708//113
f 948//114 947//114 943//114 944//114 941//114 942//114 946//114 945//114 949//114
f 121//115 120//115 115//115 114//115 113//115 83//115 828//115 866//115 858//115 859//115 687//115 686//115 683//115 346//115 344//115 342//115 340//115 343//115 345//115 341//115 685//115 684//115 336//115 335//115 347//115 337//115 339//115 338//115 679//115 681//115 334//115 290//115 402//115 270//115 353//115 352//115 397//115 396//115 369//115 373//115 377//115 375//115 376//115 378//115 379//115 362//115 348//115 367//115 366//115 368//115 355//115 363//115 519//115 518//115 523//115 520//115 522//115 521//115 514//115 513//115 515//115 432//115 431//115 435//115 446//115 448//115 447//115 281//115 282//115 288//115 289//115 857//115 856//115 855//115 844//115 904//115 903//115 902//115 990//115 985//115 984//115 981//115 982//115 983//115
f 885//116 887//116 886//116 879//116 862//116 864//116 863//116 92//116 95//116 91//116 94//116 122//116 123//116 134//116 127//116 126//116 86//116 84//116 85//116 101//116 102//116 97//116 98//116 96//116 865//116 881//116 883//116 884//116
f 1609//117 1602//117 1603//117 1565//117 1566//117 1567//117 1571//117 1570//117 1575//117 1564//117 1563//117 1623//117 1622//117 1621//117 1613//117 1614//117 1608//117
f 1649//118 1648//118 1539//118 1540//118 1542//118 1541//118 1544//118 1531//118 1530//118 1504//118 1485//118 1503//118 1495//118 1494//118 1493//118 1496//118 1637//118 1639//118 1638//118 1652//118
f 882//119 889//119 890//119 895//119 894//119 1079//119 1108//119 1061//119 1066//119 1062//119 1063//119 1064//119 1065//119 1110//119 1109//119 1113//119 1112//119 998//119 1111//119 1116//119 996//119 1118//119 1119//119 1120//119 1017//119 1023//119 1024//119 1000//119 1001//119 1025//119 1036//119 1059//119 1058//119 1060//119 1054//119 1055//119 1056//119 1057//119 1048//119 1050//119 1049//119 1051//119 1052//119 1053//119 1047//119 995//119 994//119 1203//119 1198//119 811//119 814//119 815//119 818//119 819//119 820//119 817//119 816//119 812//119 813//119 1037//119 1039//119 1038//119 1041//119 1040//119 1043//119 1042//119 1045//119 1044//119 1046//119 1035//119 1114//119 1029//119 1030//119 1031//119 1028//119 1026//119 997//119 1027//119 1085//119 1084//119 1076//119 1078//119 1077//119 1083//119 1082//119 1081//119 1080//119 1074//119 1075//119 1072//119 1073//119 1071//119 1070//119 1069//119 1068//119 1067//119 880//119 879//119 886//119 887//119 888//119
f 1380//120 1348//120 1347//120 1353//120 1352//120 1283//120 1284//120 1286//120 1285//120 1355//120 1354//120 1344//120 1346//120 1345//120 1388//120 1389//120 1395//120 1396//120 1397//120 1384//120 1385//120 1386//120 1381//120
f 1304//121 1257//121 1258//121 1305//121
f 1374//122 1373//122 1372//122 1376//122 1362//122 1329//122 1330//122 1322//122 1323//122 1313//122 1314//122 1315//122 1324//122 1325//122 1331//122 1332//122 1333//122 1310//122 1312//122 1399//122 1371//122 1377//122 1370//122 1369//122
f 763//123 764//123 765//123 732//123 729//123 768//123 769//123
f 803//124 802//124 800//124 801//124
f 1585//125 1586//125 1385//125 1384//125 1397//125 1396//125 1593//125 1592//125 1579//125 1576//125 1577//125 1580//125 1581//125
f 939//126 932//126 931//126 927//126 928//126 926//126 925//126 920//126 916//126 915//126 917//126 912//126 911//126 910//126 909//126 848//126 851//126 854//126 850//126 849//126 1005//126 1003//126 1006//126 1008//126 1007//126 1011//126 1010//126 1012//126 1014//126 1013//126 1015//126 1009//126 1002//126 999//126 1098//126 1104//126 1105//126 1097//126 1094//126 1095//126 1091//126 1092//126 1088//126 1089//126 1087//126 1086//126 955//126 954//126 964//126 959//126 960//126 965//126 966//126 967//126 952//126 950//126 938//126 940//126
f 1449//127 1450//127 1452//127 1451//127 185//127
f 2//128 4//128 3//128 1//128
f 74//129 72//129 76//129 75//129 77//129 917//129 915//129 916//129 920//129 923//129 922//129 918//129 919//129 73//129
f 297//130 296//130 298//130 299//130 300//130
f 1121//131 1122//131 1143//131 1142//131 1141//131
f 1271//132 1270//132 1244//132 1235//132
f 446//133 444//133 445//133 277//133 276//133 283//133 284//133 279//133 278//133 289//133 288//133 282//133 281//133 447//133 448//133
f 1453//134 187//134 1457//134 1482//134 1466//134 1477//134
f 792//135 794//135 793//135 791//135
f 1686//136 1693//136 1694//136 1695//136 1683//136 1684//136 1685//136
f 1671//137 1670//137 1673//137 1672//137 1642//137 1486//137 1500//137 1488//137 1487//137 1490//137 1479//137 1478//137 1475//137 1472//137 1471//137 1469//137 1470//137 1432//137 1431//137 1663//137
f 205//138 219//138 1230//138 1231//138
f 1240//139 1266//139 1265//139 1241//139
f 1391//140 1390//140 1587//140 1588//140 1583//140 1584//140 1589//140 1590//140 1393//140 1392//140 1383//140 1382//140
f 788//28 810//28 808//28 1121//28 1141//28
f 710//141 709//141 711//141 712//141 714//141
f 47//142 43//142 46//142 66//142 65//142 64//142 103//142 111//142 112//142 106//142 110//142 109//142 108//142 107//142 104//142 105//142 118//142 119//142 116//142 117//142 133//142 129//142 125//142 130//142 88//142 124//142 90//142 89//142 87//142 82//142 834//142 833//142 829//142 830//142 831//142 832//142 859//142 858//142 866//142 828//142 83//142 113//142 114//142 115//142 120//142 121//142 983//142 982//142 981//142 974//142 976//142 45//142 44//142 40//142
f 196//143 197//143 298//143 296//143
f 790//144 792//144 791//144 789//144
f 742//145 743//145 719//145 720//145 722//145 724//145
f 1261//146 1295//146 1294//146 1293//146 1260//146
f 1283//147 1282//147 1252//147 1253//147 1284//147
f 1122//148 1123//148 346//148 683//148 1143//148
f 229//149 231//149 230//149 228//149
f 1159//79 1158//79 1157//79 1160//79 1146//79 1144//79 1145//79
f 1166//79 804//79 806//79 809//79 789//79 791//79 793//79 795//79 797//79 799//79 1163//79 1162//79 1173//79 1172//79 1171//79 1170//79 1169//79 1168//79 1167//79
f 1171//150 1172//150 1151//150 1152//150
f 800//79 802//79 804//79 1166//79 1165//79 1164//79 1163//79 799//79
f 236//151 238//151 237//151 234//151 235//151
f 986//152 980//152 979//152 978//152 56//152 977//152 55//152 48//152 57//152 54//152 51//152 52//152 47//152 40//152 44//152 45//152 976//152 974//152 981//152 984//152 985//152 990//152 902//152 901//152 899//152 897//152 896//152 989//152 975//152 988//152 987//152 992//152 991//152
f 1446//153 1449//153 185//153 1448//153 1447//153
f 743//88 744//88 716//88 719//88
f 1267//154 1243//154 1242//154 1268//154
f 287//155 278//155 279//155 280//155 285//155 545//155 542//155 546//155 547//155 548//155 552//155 553//155 555//155 554//155 561//155 557//155 560//155 559//155 558//155 562//155 556//155 286//155
f 302//156 300//156 299//156 301//156 303//156 305//156 39//156 327//156 319//156 1//156 3//156 5//156 7//156 9//156 11//156 13//156 18//156 19//156 21//156 23//156 25//156 27//156 29//156 306//156 304//156
f 1628//157 1594//157 1595//157 1596//157 1615//157 1616//157 1617//157 1625//157 1624//157 1629//157 1630//157 1425//157 1424//157 1423//157 1427//157 1426//157
f 1137//158 1139//158 341//158 345//158 343//158 1134//158
f 1178//159 1177//159 1175//159
f 1176//160 1179//160 1174//160
f 1125//161 1127//161 1130//161 1129//161 342//161 344//161 346//161 1123//161
f 71//162 70//162 970//162 61//162 69//162 68//162 67//162 99//162 100//162 102//162 101//162 85//162 84//162 86//162 126//162 127//162 128//162 131//162 132//162 81//162 129//162 133//162 117//162 116//162 119//162 118//162 105//162 104//162 107//162 108//162 109//162 110//162 106//162 112//162 111//162 103//162 64//162 65//162 66//162 62//162 63//162 972//162 971//162 969//162 968//162
f 1280//146 1279//146 1250//146 1251//146 1281//146
f 295//163 309//163 274//163 273//163 333//163
f 82//164 87//164 89//164 90//164 124//164 88//164 130//164 125//164 129//164 81//164 132//164 131//164 128//164 127//164 134//164 123//164 122//164 94//164 91//164 95//164 92//164 863//164 93//164 864//164 862//164 879//164 880//164 1067//164 1068//164 1069//164 1070//164 1071//164 1073//164 1072//164 1075//164 1074//164 1080//164 1081//164 1082//164 1083//164 1077//164 1078//164 1076//164 1084//164 1085//164 1027//164 997//164 1026//164 1028//164 1031//164 1030//164 1029//164 1114//164 1035//164 1032//164 1034//164 1004//164 1033//164 831//164 830//164 829//164 833//164 834//164
f 741//165 742//165 724//165 725//165
f 442//166 440//166 441//166 174//166 172//166 449//166 450//166 451//166 453//166 454//166 452//166 646//166 645//166 648//166 647//166 649//166 650//166 651//166 652//166 653//166 654//166 656//166 655//166 659//166 544//166 543//166 546//166 542//166 545//166 285//166 280//166 279//166 284//166 283//166 276//166 277//166 445//166
f 694//167 695//167 336//167 684//167 682//167 679//167 692//167
f 168//168 162//168 166//168 163//168 164//168 167//168 170//168 169//168 154//168 155//168 509//168 510//168 156//168 157//168 153//168 152//168 165//168
f 32//169 34//169 36//169 38//169 37//169 35//169 33//169 31//169 29//169 30//169
f 1296//170 1297//170 1375//170 1370//170 1377//170 1371//170 1399//170 1312//170 1310//170 1333//170 1332//170 1317//170 1316//170 1264//170 1265//170 1266//170 1267//170 1268//170 1269//170 1321//170 1320//170 1327//170 1328//170 1335//170 1336//170 1337//170 1339//170 1342//170 1338//170 1357//170 1358//170 1350//170 1351//170 1280//170 1281//170 1282//170 1283//170 1352//170 1353//170 1347//170 1348//170 1380//170 1381//170 1386//170 1378//170 1379//170 1400//170 1398//170 1402//170 1401//170 1416//170 1408//170 1423//170 1424//170 1417//170 1363//170 1364//170 1294//170 1295//170
f 1162//58 1148//58 1149//58 1173//58
f 1207//171 1208//171 1209//171 1210//171 320//171 314//171 313//171 312//171 311//171 315//171 1205//171 1206//171
f 1264//172 1278//172 1239//172 1241//172 1265//172
f 38//173 36//173 34//173 32//173 30//173 28//173 26//173 24//173 22//173 20//173 17//173 1216//173 1215//173 1214//173 1213//173 1212//173 1211//173 1210//173 1209//173 1208//173 1207//173 1206//173 1205//173
f 1164//174 1147//174 1148//174 1162//174 1163//174
f 1218//175 1219//175 1220//175 329//175 328//175 318//175 317//175 1217//175
f 10//173 8//173 6//173 4//173 2//173 1224//173 1223//173 1222//173 1221//173 1220//173 1219//173 1218//173 1217//173 15//173 12//173
f 243//176 245//176 244//176 242//176
f 1137//177 1136//177 1138//177 1140//177 1139//177
f 1247//178 1288//178 1287//178 1246//178
f 1442//179 1440//179 1441//179 1443//179 1445//179 184//179
f 1281//88 1251//88 1252//88 1282//88
f 215//180 214//180 1233//180 1234//180 216//180
f 1244//79 1242//79 1243//79 1240//79 1241//79 1239//79 1238//79 1237//79 1236//79 1235//79
f 1287//181 1285//181 1286//181 1245//181 1246//181
f 808//182 810//182 809//182 806//182 807//182
f 740//183 741//183 725//183 727//183
f 231//184 233//184 232//184 230//184
f 708//185 706//185 709//185 710//185
f 249//186 229//186 228//186 248//186
f 713//187 714//187 712//187 689//187 715//187
f 1168//188 1169//188 1155//188 1158//188 1159//188
f 206//189 1227//189 1228//189 222//189
f 805//190 807//190 806//190 804//190
f 1171//191 1152//191 1153//191 1170//191
f 1138//35 1141//35 1142//35 1140//35
f 206//192 203//192 1226//192 1227//192
f 241//87 243//87 242//87 240//87
f 1291//193 1292//193 1249//193 1250//193 1279//193
f 788//194 790//194 789//194 809//194 810//194
f 739//195 740//195 727//195 728//195
f 1129//196 1130//196 1128//196 1132//196 1131//196
f 1249//197 1292//197 1290//197 1248//197
f 1230//91 219//91 208//91 1229//91
f 1125//176 1124//176 1126//176 1127//176
f 1272//198 1271//198 1235//198 1236//198 1273//198
f 1256//199 1302//199 1301//199 1255//199
f 794//154 796//154 795//154 793//154
f 1305//200 1258//200 1259//200 1307//200
f 1266//88 1240//88 1243//88 1267//88
f 603//201 614//201 604//201 626//201 615//201 627//201 616//201 619//201 628//201 620//201 621//201 617//201 623//201 618//201 625//201 631//201 632//201 529//201 530//201 636//201 640//201 638//201 639//201 637//201 672//201 673//201 676//201 668//201 677//201 578//201 579//201 583//201 584//201 537//201 525//201 251//201 250//201 265//201 264//201 262//201 261//201 259//201 750//201 749//201 748//201 751//201 771//201 772//201 776//201 787//201 782//201 783//201 784//201 785//201 777//201 778//201 524//201 586//201 585//201 572//201 577//201 576//201 575//201 570//201 571//201 574//201 573//201 540//201 642//201 644//201 643//201 667//201 665//201 674//201 675//201 666//201 663//201 664//201 662//201 671//201 670//201 641//201 669//201 634//201 635//201 633//201 630//201 624//201 629//201 622//201 613//201 612//201 611//201 595//201 610//201 594//201 609//201 593//201 608//201 607//201 606//201 605//201 419//201 420//201 423//201 424//201 418//201 416//201 527//201 417//201 528//201 538//201 539//201 587//201 588//201 596//201 589//201 597//201 590//201 598//201 591//201 599//201 592//201 600//201 601//201 602//201
f 1187//202 1188//202 1189//202 1193//202 1192//202 1154//202 1150//202 1190//202 1191//202 1186//202
f 423//203 420//203 492//203 493//203 503//203 504//203 500//203 501//203 496//203 497//203 495//203 478//203 481//203 483//203 491//203 490//203 505//203 412//203 411//203 429//203
f 1222//204 1223//204 326//204 331//204 330//204 329//204 1220//204 1221//204
f 764//205 760//205 786//205 785//205 784//205 783//205 782//205 787//205 776//205 772//205 771//205 770//205 752//205 754//205 774//205 775//205 773//205 721//205 720//205 719//205 716//205 718//205 733//205 731//205 730//205 728//205 727//205 725//205 724//205 722//205 723//205 726//205 729//205 732//205 717//205 746//205 779//205 780//205 781//205 765//205
f 885//206 893//206 889//206 882//206 888//206 887//206
f 1275//121 1237//121 1238//121 1276//121
f 1437//207 1438//207 1458//207 1456//207
f 38//208 1205//208 315//208 37//208
f 973//209 41//209 871//209 870//209 924//209 930//209 921//209 872//209 869//209
f 476//210 488//210 487//210 483//210 481//210 482//210 484//210 485//210 477//210
f 476//211 477//211 485//211 486//211 403//211 404//211 507//211 506//211 152//211 153//211 157//211 156//211 510//211 509//211 155//211 154//211 171//211 159//211 158//211 508//211 406//211 405//211 474//211 475//211 487//211 488//211
f 1305//212 1307//212 1306//212 1365//212 1366//212 1413//212 1412//212 1419//212 1420//212 1428//212 1429//212 1430//212 1421//212 1422//212 1414//212 1411//212 1410//212 1367//212 1368//212 1303//212 1304//212
f 893//213 885//213 884//213 883//213 881//213 891//213 892//213
f 1297//147 1296//147 1262//147 1263//147 1298//147
f 735//79 239//79 240//79 737//79 736//79
f 310//214 293//214 861//214 836//214 835//214
f 194//215 193//215 821//215 822//215 824//215 825//215 826//215 827//215 823//215 308//215 254//215 255//215 252//215 257//215 260//215 261//215 262//215 264//215 263//215 258//215 253//215 192//215 191//215 275//215 835//215
f 291//216 860//216 861//216 293//216
f 1277//217 1278//217 1264//217 1316//217 1317//217 1332//217 1331//217 1325//217 1324//217 1315//217 1314//217
f 1559//218 1558//218 1556//218 1557//218 1555//218 1551//218 1550//218 1548//218 1549//218 1436//218 1435//218 1646//218 1651//218 1650//218 1690//218 1691//218 1692//218 1508//218 1507//218 1510//218 1509//218 1512//218 1535//218 1534//218
f 1297//219 1298//219 1300//219 1299//219 1373//219 1374//219 1369//219 1370//219 1375//219
f 908//220 842//220 843//220 837//220 853//220 846//220 854//220 851//220 848//220 909//220 910//220 911//220 913//220
f 1124//28 1121//28 808//28 807//28 805//28 803//28 801//28 798//28 796//28 794//28 792//28 790//28 788//28 1141//28 1138//28 1136//28 1133//28 1132//28 1128//28 1126//28
f 1563//221 1564//221 1575//221 1570//221 1571//221 1572//221 1578//221 1591//221 1590//221 1589//221 1584//221 1583//221 1588//221 1587//221 1562//221
f 1506//222 1515//222 1517//222 1516//222 1513//222 1514//222 1526//222 1525//222 1527//222 1521//222 1484//222 1483//222 1481//222 1480//222 1473//222 1459//222 1464//222 1476//222 1468//222 1467//222 1466//222 1482//222 1457//222 1458//222 1438//222 1439//222 1528//222 1529//222 1518//222 186//222 1520//222 1519//222
f 1463//223 1462//223 1460//223 1461//223 1664//223 1665//223 1675//223 1674//223 1676//223 1677//223 1681//223 1682//223 1669//223 1663//223 1431//223 1432//223 1470//223 1469//223 1471//223 1474//223 1465//223
f 245//224 247//224 246//224 244//224
f 947//225 935//225 933//225 934//225 921//225 930//225 929//225 941//225 944//225 943//225
f 1446//79 1443//79 1441//79 1437//79 1456//79 1454//79 1450//79 1449//79
f 1505//226 1501//226 1502//226 1499//226 1498//226 1497//226 1496//226 1493//226 1494//226 1495//226 1503//226 1485//226 1504//226 1530//226 1531//226 1544//226 1541//226 1542//226 1543//226 1545//226 1553//226 1552//226 1560//226 1561//226 1546//226 1532//226 1444//226 1447//226 1448//226
f 1578//227 1572//227 1573//227 1574//227 1577//227 1576//227 1579//227
f 291//228 292//228 306//228 29//228 31//228 33//228 35//228 37//228 315//228 311//228 312//228 313//228 314//228 320//228 321//228 322//228 323//228 324//228 325//228 316//228 16//228 18//228 13//228 14//228 317//228 318//228 328//228 329//228 330//228 331//228 326//228 327//228 39//228
f 1505//229 1448//229 185//229 1451//229 1492//229 1491//229 1489//229
f 1002//230 1009//230 1015//230 1013//230 1016//230 1020//230 1019//230 568//230 569//230 558//230 559//230 560//230 557//230 561//230 554//230 555//230 553//230 552//230 548//230 547//230 546//230 535//230 536//230 549//230 550//230 551//230 678//230 563//230 564//230 534//230 533//230 532//230 565//230 567//230 566//230 1022//230 1021//230 1018//230 1115//230 1117//230 1106//230 1107//230 1090//230 1096//230 1093//230 1099//230 1101//230 1100//230 1103//230 1102//230 999//230
f 925//231 926//231 928//231 929//231 930//231 924//231 923//231 920//231
f 189//232 300//232 302//232 304//232 306//232 292//232 332//232
f 732//233 765//233 781//233 780//233 779//233 746//233 717//233
f 803//234 805//234 804//234 802//234
f 197//235 860//235 291//235 39//235 305//235 303//235 301//235 299//235 298//235
f 1268//236 1242//236 1244//236 1270//236 1269//236
f 692//237 691//237 690//237 693//237 694//237
f 1617//238 1616//238 1615//238 1610//238 1611//238 1612//238 1619//238 1618//238 1627//238 1626//238 1631//238 1630//238 1629//238 1624//238 1625//238
f 74//239 73//239 900//239 898//239 899//239 901//239 905//239 78//239 79//239 80//239 77//239 75//239 76//239 72//239
f 1378//240 1386//240 1385//240 1586//240 1582//240 1595//240 1594//240 1628//240 1426//240 1427//240 1423//240 1408//240 1416//240 1401//240 1402//240 1398//240 1400//240 1379//240
f 437//241 438//241 439//241 443//241 442//241 445//241 444//241 446//241 435//241 436//241
f 310//242 835//242 275//242 274//242 309//242
f 721//243 773//243 775//243 774//243 754//243 756//243 747//243 757//243 758//243
f 689//81 690//81 691//81 715//81
f 1612//244 1606//244 1607//244 1600//244 1601//244 1602//244 1609//244 1608//244 1614//244 1613//244 1621//244 1620//244 1619//244
f 702//245 704//245 707//245 337//245 347//245 335//245 701//245
f 679//246 338//246 713//246 715//246 691//246 692//246
f 50//247 973//247 869//247 872//247 921//247 934//247 933//247 935//247 947//247 948//247 972//247 63//247 62//247 66//247 46//247 43//247 47//247 52//247 51//247 54//247 53//247
f 1127//87 1126//87 1128//87 1130//87
f 701//248 699//248 698//248 700//248 702//248
f 12//249 15//249 14//249 13//249 11//249
f 247//183 249//183 248//183 246//183
f 1275//250 1276//250 1277//250 1314//250 1313//250 1323//250 1322//250 1309//250 1274//250
f 906//251 905//251 901//251 902//251 903//251 904//251 844//251 855//251 856//251 838//251 837//251 843//251 842//251 908//251 907//251
f 946//252 942//252 951//252 953//252 962//252 963//252 961//252 958//252 875//252 892//252 891//252 876//252 878//252 877//252 937//252 936//252
f 1574//253 1568//253 1569//253 1597//253 1599//253 1604//253 1605//253 1611//253 1610//253 1615//253 1596//253 1595//253 1582//253 1586//253 1585//253 1581//253 1580//253 1577//253
f 907//254 908//254 913//254 911//254 912//254 917//254 77//254 80//254 914//254 78//254 905//254 906//254
f 1223//255 1224//255 319//255 327//255 326//255
f 1134//256 1135//256 1133//256 1136//256 1137//256
f 839//257 838//257 856//257 857//257 845//257 840//257 841//257
f 1654//258 1657//258 1656//258 1653//258 1647//258 1648//258 1649//258 1652//258 1638//258 1636//258 1635//258 1644//258 1645//258 1640//258 1641//258 1634//258 1655//258
f 26//259 28//259 30//259 29//259 27//259 25//259 23//259 21//259 19//259 20//259 22//259 24//259
f 1216//260 17//260 16//260 316//260
f 191//261 192//261 267//261 266//261 290//261 334//261 681//261 680//261 297//261 188//261 190//261
f 415//262 416//262 418//262 424//262 423//262 429//262 430//262 427//262 428//262 425//262 426//262
f 1262//79 1261//79 1260//79 1259//79 1258//79 1257//79 1256//79 1255//79 1254//79 1263//79
f 1454//263 1456//263 1458//263 1457//263 187//263 1453//263 1455//263
f 15//264 1217//264 317//264 14//264
f 1447//265 1444//265 1445//265 1443//265 1446//265
f 1650//266 1662//266 1661//266 1657//266 1654//266 1655//266 1658//266 1659//266 1660//266 1696//266 1695//266 1694//266 1689//266 1690//266
f 1273//267 1274//267 1309//267 1322//267 1330//267 1329//267 1362//267 1376//267 1372//267 1373//267 1299//267 1301//267 1302//267 1303//267 1368//267 1367//267 1410//267 1411//267 1414//267 1415//267 1409//267 1405//267 1403//267 1407//267 1406//267 1382//267 1383//267 1392//267 1393//267 1394//267 1387//267 1388//267 1345//267 1346//267 1344//267 1354//267 1355//267 1285//267 1287//267 1288//267 1289//267 1356//267 1341//267 1359//267 1360//267 1340//267 1361//267 1343//267 1404//267 1311//267 1308//267 1334//267 1335//267 1328//267 1327//267 1326//267 1319//267 1318//267 1272//267
f 1418//268 1620//268 1621//268 1622//268 1633//268 1632//268 1429//268 1428//268 1420//268 1419//268
f 737//269 738//269 730//269 731//269 736//269
f 1452//270 1455//270 1453//270 1477//270 1466//270 1467//270 1468//270 1476//270 1464//270 1465//270 1474//270 1471//270 1472//270 1475//270 1478//270 1479//270 1490//270 1487//270 1488//270 1501//270 1505//270 1489//270 1491//270 1492//270 1451//270
f 874//271 890//271 889//271 893//271 892//271 875//271 958//271 961//271 963//271 962//271 953//271 951//271 942//271 938//271 950//271 952//271 967//271 966//271 965//271 960//271 959//271 957//271 956//271 873//271
f 1232//79 1231//79 1230//79 1229//79 1228//79 1227//79 1226//79 1225//79 1234//79 1233//79
f 332//272 292//272 294//272 295//272 333//272
